<?xml version="1.0" encoding="utf-8"?>
<!-- Generator: Adobe Illustrator 25.3.1, SVG Export Plug-In . SVG Version: 6.00 Build 0)  -->
<svg version="1.1" id="Layer_1" xmlns="http://www.w3.org/2000/svg" xmlns:xlink="http://www.w3.org/1999/xlink" x="0px" y="0px"
	 viewBox="0 0 235 115" style="enable-background:new 0 0 235 115;" xml:space="preserve">
<style type="text/css">
	.st0{fill:#FFEFD2;}
	.st1{fill:#2F302F;}
	.st2{fill:#33A544;}
	.st3{fill:#6ACEF5;}
	.st4{fill:#FEE105;}
	.st5{fill:#F2E916;}
	.st6{fill:#292E76;}
	.st7{fill:#F6901D;}
	.st8{fill-rule:evenodd;clip-rule:evenodd;fill:#0B7B3B;}
	.st9{fill-rule:evenodd;clip-rule:evenodd;fill:#EDD912;}
	.st10{fill-rule:evenodd;clip-rule:evenodd;fill:#9C59B5;}
	.st11{fill-rule:evenodd;clip-rule:evenodd;fill:#EB66AB;}
	.st12{fill-rule:evenodd;clip-rule:evenodd;fill:#FFA31C;}
	.st13{fill-rule:evenodd;clip-rule:evenodd;fill:#2BC2FF;}
	.st14{fill-rule:evenodd;clip-rule:evenodd;fill:#33CC99;}
	.st15{fill:#454545;}
	.st16{fill:#8DAE05;}
	.st17{fill:#009EBE;}
	.st18{fill:#00C4C9;}
	.st19{fill:#4376CD;}
	.st20{fill:#FFFFFF;}
	.st21{fill:#99CC00;}
	.st22{fill:#0A0B1D;}
	.st23{clip-path:url(#SVGID_2_);}
	.st24{fill:#DFF6E8;}
	.st25{fill:#A2E5BE;}
	.st26{fill:none;stroke:#90D6AC;stroke-width:1.9681;stroke-linecap:round;stroke-linejoin:round;stroke-miterlimit:10;}
	.st27{fill:none;stroke:#A2E5BE;stroke-width:2.6236;stroke-linecap:round;stroke-linejoin:round;stroke-miterlimit:10;}
	.st28{clip-path:url(#SVGID_2_);fill:none;stroke:#365BB8;stroke-width:12.1227;stroke-miterlimit:10;}
	.st29{clip-path:url(#SVGID_2_);fill:#79BBF7;}
	.st30{clip-path:url(#SVGID_2_);fill:#99CFFF;}
	.st31{fill:#79BBF7;}
	.st32{fill:#99CFFF;}
	.st33{fill:#4A7AF6;}
	.st34{fill:#D16181;}
	.st35{fill:#D7E0FF;}
	.st36{fill:#08A6FD;}
	.st37{fill:#90D6AC;}
	.st38{fill:#243D7C;}
	.st39{clip-path:url(#SVGID_2_);fill:#4A7AF6;}
	.st40{fill:none;stroke:#365BB8;stroke-width:18.6503;stroke-miterlimit:10;}
	.st41{fill:#BDD8FF;}
	.st42{clip-path:url(#SVGID_2_);fill:none;stroke:#365BB8;stroke-width:11.6489;stroke-miterlimit:10;}
	.st43{fill:#BE546D;}
	.st44{fill:#EDB39A;}
	.st45{fill:#F6C464;}
	.st46{fill:#AECDFF;}
	.st47{fill:#AF4664;}
	.st48{clip-path:url(#SVGID_2_);fill:#243D7C;}
	.st49{clip-path:url(#SVGID_2_);fill:none;}
	.st50{clip-path:url(#SVGID_4_);}
	.st51{fill:#00A8FF;}
	.st52{fill:#D6E3FC;}
	.st53{fill:#82DAD9;}
	.st54{fill:#E480D0;}
	.st55{fill:#FFDDD4;}
	.st56{fill:#FFD9D9;}
	.st57{fill:#FFF2E9;}
	.st58{fill:#C8FCF9;}
	.st59{fill:#FFBE00;}
	.st60{fill:#68D493;}
	.st61{fill:#00A7FF;}
	.st62{fill:#47A7F8;}
	.st63{fill:#365BB8;}
	.st64{clip-path:url(#SVGID_6_);}
	.st65{fill:#F9FAFB;}
	.st66{clip-path:url(#SVGID_8_);}
	.st67{clip-path:url(#SVGID_10_);}
	.st68{clip-path:url(#SVGID_12_);}
	.st69{fill:none;stroke:#FFFFFF;stroke-width:0.7631;stroke-linecap:round;stroke-linejoin:round;stroke-miterlimit:10;}
	.st70{opacity:0.79;fill:#68D493;}
	.st71{fill:none;stroke:#FFFFFF;stroke-width:2.0657;stroke-linecap:round;stroke-linejoin:round;stroke-miterlimit:10;}
	.st72{fill:none;stroke:#365BB8;stroke-width:1.4392;stroke-linecap:round;stroke-linejoin:round;stroke-miterlimit:10;}
	.st73{clip-path:url(#SVGID_14_);}
	.st74{fill:none;stroke:#4A7AF6;stroke-width:0.3309;stroke-linecap:round;stroke-linejoin:round;stroke-miterlimit:10;}
	.st75{clip-path:url(#SVGID_16_);}
	.st76{clip-path:url(#SVGID_18_);}
	.st77{clip-path:url(#SVGID_16_);fill:#FFFFFF;}
	.st78{clip-path:url(#SVGID_16_);fill:#00A8FF;}
	.st79{fill:#FFE5BB;}
	.st80{fill:none;stroke:#FFE5BB;stroke-width:1.3957;stroke-linecap:round;stroke-miterlimit:10;}
	.st81{fill:#EA4E4E;}
	.st82{fill:#B9924C;}
	.st83{fill:#F7C800;}
	.st84{clip-path:url(#SVGID_20_);}
	.st85{clip-path:url(#SVGID_2_);fill:#365BB8;}
	.st86{clip-path:url(#SVGID_2_);fill:none;stroke:#365BB8;stroke-width:18.6503;stroke-miterlimit:10;}
	.st87{clip-path:url(#SVGID_2_);fill:#D1D1D1;}
	.st88{fill:#EAEAEA;}
	.st89{fill:#E2E2E2;}
	.st90{fill:none;stroke:#000000;stroke-width:0.5136;stroke-miterlimit:10;}
	.st91{fill:#565656;}
	.st92{fill:#727272;}
	.st93{fill:#9B9B9B;}
	.st94{fill:#BABABA;}
	.st95{fill:#D1D1D1;}
	.st96{fill:#F4F4F4;}
	.st97{fill:#E28156;}
	.st98{fill:#63A4A2;}
	.st99{fill:#A96140;}
	.st100{fill:#B53535;}
	.st101{fill:#426E6D;}
	.st102{fill:#7C6332;}
	.st103{fill:#72412C;}
	.st104{fill:#565CC0;}
	.st105{fill:#3E4693;}
	.st106{fill:#2D3572;}
	.st107{fill:#7C2121;}
	.st108{fill:#8E3F52;}
	.st109{fill:#5F2B37;}
	.st110{fill:#70C3FA;}
	.st111{fill:#0D293E;}
	.st112{fill:#1F537C;}
	.st113{fill:#327DB9;}
	.st114{fill:#01A8FF;}
	.st115{fill:#C4E8FD;}
	.st116{fill:#E6F6FE;}
	.st117{fill:#CE904D;}
	.st118{fill:#161413;}
	.st119{fill:#443833;}
	.st120{fill:#4F4947;}
	.st121{fill:#F4B76E;}
	.st122{fill:#F5C0B7;}
	.st123{fill:#C07666;}
	.st124{fill:#D99480;}
	.st125{fill:#F3B39F;}
	.st126{fill:#F7D5D4;}
	.st127{fill:#BB7C5E;}
	.st128{fill:#834A41;}
	.st129{fill:#965B4B;}
	.st130{fill:#AA6D55;}
	.st131{fill:#C28A68;}
	.st132{fill:#D85D45;}
	.st133{fill:#FF9F9F;}
	.st134{fill:#E2A1B2;}
	.st135{fill:#F1DCE1;}
	.st136{fill:#819EF2;}
	.st137{fill:#B3CEFF;}
	.st138{fill:#F28C8C;}
	.st139{fill:#CE8699;}
	.st140{fill:#6F7FDD;}
	.st141{fill:#4E9F6F;}
	.st142{fill:#346B4A;}
	.st143{fill:#F7D4A1;}
	.st144{fill:#FCE4D6;}
	.st145{fill:#F9CFC5;}
	.st146{fill:#A0EADD;}
	.st147{fill:#85D3CC;}
	.st148{fill:#C0E7FF;}
	.st149{fill:none;stroke:#FFE5BB;stroke-width:4;stroke-linecap:round;stroke-linejoin:round;stroke-miterlimit:10;}
	.st150{fill:none;stroke:#FFE5BB;stroke-width:4;stroke-linecap:round;stroke-linejoin:round;}
	.st151{clip-path:url(#SVGID_24_);}
	.st152{fill:none;stroke:#FFE5BB;stroke-width:3;stroke-linecap:round;stroke-linejoin:round;}
	.st153{fill:#FBC04F;}
	.st154{fill:#FAD097;}
	.st155{fill:#10274F;}
	.st156{opacity:0.3;fill:#10274F;}
	.st157{fill-rule:evenodd;clip-rule:evenodd;fill:#9277C5;}
	.st158{fill-rule:evenodd;clip-rule:evenodd;fill:#771E8D;}
	.st159{filter:url(#Adobe_OpacityMaskFilter);}
	.st160{clip-path:url(#SVGID_29_);}
	.st161{enable-background:new    ;}
	.st162{clip-path:url(#SVGID_31_);}
	.st163{clip-path:url(#SVGID_33_);}
	.st164{clip-path:url(#SVGID_35_);}
	.st165{clip-path:url(#SVGID_35_);fill-rule:evenodd;clip-rule:evenodd;fill:#FFFFFF;}
	.st166{mask:url(#SVGID_27_);}
	.st167{clip-path:url(#SVGID_37_);}
	.st168{clip-path:url(#SVGID_39_);fill-rule:evenodd;clip-rule:evenodd;fill:#FFFFFF;}
	.st169{fill-rule:evenodd;clip-rule:evenodd;fill:#80699B;}
	.st170{fill:#4CA3A0;}
	.st171{fill:#86EADA;}
	.st172{fill:#E0F3FF;}
</style>
<g>
	<path class="st1" d="M89.6,38c-5.1,0-8.8-3.6-8.8-10c0-6.8,4-10.2,8.9-10.2c2.5,0,4.3,0.7,5.8,1.7l-0.6,4.3
		C93.3,22.6,91.8,22,90,22c-2.6,0-4.6,2.1-4.6,5.9c0,4,2.1,6,4.9,6c1.6,0,3.1-0.4,4.8-1.9l0.6,4.1C93.8,37.5,91.9,38,89.6,38"/>
	<path class="st1" d="M106.2,38c-5,0-8.7-3.8-8.7-10.1c0-6.3,3.7-10.1,8.7-10.1c5.1,0,8.7,3.8,8.7,10.1
		C114.9,34.3,111.2,38,106.2,38 M106.2,21.8c-2.7,0-4.2,2.5-4.2,6.2c0,3.5,1.5,6.1,4.2,6.1c2.8,0,4.3-2.5,4.3-6.1
		C110.4,24.4,108.9,21.8,106.2,21.8"/>
	<path class="st1" d="M140,37.6V24.9c0-1.7-0.6-2.9-2.3-2.9c-1.4,0-2.8,1-4.1,2.4v13.2H129V24.9c0-1.7-0.6-2.9-2.3-2.9
		c-1.4,0-2.8,1-4.1,2.4v13.2H118V18.2h3.9l0.4,2.7c1.7-1.7,3.6-3.1,6.1-3.1c2.6,0,4.1,1.3,4.8,3.1c1.6-1.7,3.7-3.1,6.2-3.1
		c3.5,0,5.2,2.2,5.2,5.8v14H140z"/>
	<path class="st1" d="M170.9,37.6V24.9c0-1.7-0.6-2.9-2.3-2.9c-1.4,0-2.8,1-4.1,2.4v13.2h-4.6V24.9c0-1.7-0.6-2.9-2.3-2.9
		c-1.4,0-2.8,1-4.1,2.4v13.2h-4.6V18.2h3.9l0.4,2.7c1.7-1.7,3.6-3.1,6.1-3.1c2.6,0,4.1,1.3,4.8,3.1c1.6-1.7,3.7-3.1,6.2-3.1
		c3.5,0,5.2,2.2,5.2,5.8v14H170.9z"/>
	<path class="st1" d="M187.6,38c-5,0-8.7-3.8-8.7-10.1c0-6.3,3.7-10.1,8.7-10.1c5.1,0,8.7,3.8,8.7,10.1
		C196.3,34.3,192.6,38,187.6,38 M187.6,21.8c-2.7,0-4.2,2.5-4.2,6.2c0,3.5,1.5,6.1,4.2,6.1c2.8,0,4.3-2.5,4.3-6.1
		C191.8,24.4,190.3,21.8,187.6,21.8"/>
	<path class="st1" d="M210.5,37.6V24.9c0-1.7-0.7-2.9-2.4-2.9c-1.5,0-2.9,1-4.2,2.5v13.1h-4.6V18.2h3.9l0.4,2.7
		c1.7-1.7,3.7-3.1,6.2-3.1c3.5,0,5.3,2.2,5.3,5.8v14H210.5z"/>
	<path class="st1" d="M88.6,67.1c-2.7,0-5.4-0.9-7.2-1.9l0.6-4c2,1.4,4.4,2.3,6.7,2.3c2,0,3.1-0.8,3.1-2c0-1.4-0.8-1.9-3.8-2.7
		c-4.5-1.2-6.4-2.6-6.4-6.1c0-3.3,2.5-5.7,6.8-5.7c2.4,0,4.6,0.5,6.5,1.4l-0.6,4c-1.8-1.1-4-1.8-5.9-1.8c-1.7,0-2.6,0.7-2.6,1.8
		c0,1,0.7,1.6,3.4,2.4c4.8,1.3,6.7,2.7,6.7,6.3C96.1,64.8,93.5,67.1,88.6,67.1"/>
	<path class="st1" d="M114.5,57.9h-11.9c0.2,3.8,2.1,5.4,5,5.4c2.4,0,4.3-0.9,6.4-2.4l0.5,3.8c-2,1.4-4.4,2.4-7.4,2.4
		c-5.2,0-9-3.1-9-10.1c0-6.3,3.6-10.1,8.4-10.1c5.6,0,8.1,4.4,8.1,9.9C114.5,57.2,114.5,57.7,114.5,57.9 M106.4,50.2
		c-1.8,0-3.3,1.5-3.7,4.7h7.4C109.7,51.9,108.6,50.2,106.4,50.2"/>
	<path class="st1" d="M129.2,66.7V54c0-1.7-0.7-2.9-2.4-2.9c-1.5,0-2.9,1-4.2,2.5v13.1H118V47.3h3.9l0.4,2.7
		c1.7-1.7,3.7-3.1,6.2-3.1c3.4,0,5.3,2.2,5.3,5.8v14H129.2z"/>
	<path class="st1" d="M143.9,67.1c-2.7,0-5.4-0.9-7.2-1.9l0.6-4c2,1.4,4.4,2.3,6.7,2.3c2,0,3.1-0.8,3.1-2c0-1.4-0.8-1.9-3.8-2.7
		c-4.5-1.2-6.4-2.6-6.4-6.1c0-3.3,2.5-5.7,6.8-5.7c2.4,0,4.6,0.5,6.5,1.4l-0.6,4c-1.8-1.1-4-1.8-5.9-1.8c-1.7,0-2.6,0.7-2.6,1.8
		c0,1,0.7,1.6,3.4,2.4c4.8,1.3,6.7,2.7,6.7,6.3C151.4,64.8,148.8,67.1,143.9,67.1"/>
	<path class="st1" d="M169.8,57.9h-11.9c0.2,3.8,2.1,5.4,5,5.4c2.4,0,4.3-0.9,6.4-2.4l0.5,3.8c-2,1.4-4.4,2.4-7.4,2.4
		c-5.2,0-9-3.1-9-10.1c0-6.3,3.6-10.1,8.4-10.1c5.5,0,8,4.4,8,9.9C169.9,57.2,169.8,57.7,169.8,57.9 M161.7,50.2
		c-1.8,0-3.3,1.5-3.7,4.7h7.4C165.1,51.9,163.9,50.2,161.7,50.2"/>
	<path class="st2" d="M55.9,43.8c-0.3,5-2.3,9.8-6.1,13.6c-4,4-9.3,6.1-14.9,6.1c-5.6,0-10.9-2.2-14.9-6.1c-4-4-6.2-9.2-6.2-14.8
		s2.2-10.9,6.2-14.8c4-4,9.3-6.1,14.9-6.1c5.6,0,10.9,2.2,14.9,6.1c0.7,0.7,1.3,1.4,1.9,2.2l4-4.9c-0.5-0.6-1-1.1-1.6-1.7
		c-5.2-5.1-12-8-19.3-8c-7.3,0-14.2,2.8-19.3,8c-5.2,5.1-8,12-8,19.2s2.8,14.1,8,19.2c5.2,5.1,12,8,19.3,8c7.3,0,14.2-2.8,19.3-8
		c6.7-6.7,9.2-16,7.4-24.7L55.9,43.8z"/>
	<path class="st1" d="M37.5,56.1L37.5,56.1c-4.6,0-7.6-3.9-8.1-4.4L22,43.5c-1.1-1.2-1.1-3.2,0.1-4.3c1.2-1.1,3-1.2,4.1,0l7.5,7.8
		c0,0,1.6,1.7,3.8,1.6c1.8,0,3.6-1.1,5.6-3.2l21.3-25.7c1-1.2,2.8-1.4,4.1-0.4c1.2,1,1.4,2.8,0.4,4.1L47.4,50.1
		C44.3,53.5,41,56.1,37.5,56.1"/>
	<g>
		<path class="st1" d="M95.4,90.5H83.1c0,4.4,2.1,7.5,6,7.5c2.1,0,4.4-1.1,6.1-2.7l0.3,1.6c-1.6,1.4-3.9,2.6-6.4,2.6
			c-4.6,0-7.7-3.4-7.7-9.1c0-5.5,3.2-9.1,7.4-9.1c4.5,0,6.7,3.9,6.7,8.7V90.5z M88.7,82.9c-3.3,0-5.2,2.6-5.6,6.2h10.4
			C93.4,85.7,91.8,82.9,88.7,82.9"/>
		<path class="st1" d="M112.5,99.2l-0.4-2.6c-1.4,1.6-3,2.9-5.6,2.9c-3.9,0-7.2-2.7-7.2-8.6c0-6.3,3.8-9.4,8-9.4
			c1.8,0,3.3,0.3,4.7,0.9v-9.4l1.7-0.4v26.5H112.5z M112.1,84.2c-1.4-0.7-2.9-1.1-4.6-1.1c-3.5,0-6.2,2.5-6.2,7.8
			c0,4.5,2.3,7.1,5.4,7.1c2.1,0,3.8-1.3,5.5-3.2V84.2z"/>
		<path class="st1" d="M131.9,99.2l-0.4-2.6c-2.1,1.9-4.1,3-6.4,3c-3.6,0-5.3-2-5.3-5.5V81.8h1.7v12.1c0,2.6,1.3,4.1,3.8,4.1
			c1.9,0,3.9-1.1,6.1-3.1v-13h1.7v17.4H131.9z"/>
		<path class="st1" d="M145.8,99.6c-4.3,0-7.7-3.3-7.7-9.1c0-5.8,3.5-9.1,7.8-9.1c2.2,0,4.1,0.8,5.7,1.9l-0.3,1.8
			c-1.7-1.5-3.4-2.2-5.4-2.2c-3.7,0-5.9,3.1-5.9,7.5c0,4.4,2.1,7.5,6.1,7.5c1.9,0,3.6-0.7,5.5-2.2l0.2,1.6
			C150.1,98.8,148.2,99.6,145.8,99.6"/>
		<path class="st1" d="M167.2,99.2l-0.4-2.3c-1.8,1.6-4,2.7-6.2,2.7c-2.9,0-5.3-1.5-5.3-4.6c0-3.9,3-6,11.4-6.7v-1.5
			c0-2.4-1.4-3.6-3.9-3.6c-2,0-4.1,0.6-6,1.6l-0.2-1.6c2-0.9,4-1.5,6.3-1.5c3.6,0,5.5,1.8,5.5,5.1v12.6H167.2z M166.8,89.7
			c-7.2,0.8-9.6,2.3-9.6,5.1c0,2.2,1.6,3.3,3.6,3.3c1.9,0,4.1-1.1,6-2.8V89.7z"/>
		<path class="st1" d="M179.4,99.5c-2.5,0-4.1-1-4.1-4V83.3h-2.7v-1.5h2.7v-6.2l1.7-0.4v6.5h4.3l0.2,1.5H177v11.9
			c0,2,0.8,2.7,2.8,2.7c0.6,0,1.3-0.1,1.7-0.3l0.3,1.4C181.3,99.3,180.3,99.5,179.4,99.5"/>
		<path class="st1" d="M187.6,77.1c-0.8,0-1.5-0.7-1.5-1.5c0-0.8,0.7-1.5,1.5-1.5c0.8,0,1.5,0.7,1.5,1.5
			C189.1,76.4,188.4,77.1,187.6,77.1 M186.7,81.8h1.7v17.4h-1.7V81.8z"/>
		<path class="st1" d="M201.4,99.6c-4.3,0-7.7-3.3-7.7-9.1c0-5.8,3.5-9.1,7.7-9.1c4.4,0,7.7,3.3,7.7,9.1
			C209.1,96.3,205.6,99.6,201.4,99.6 M201.4,83c-3.8,0-5.9,3.1-5.9,7.5c0,4.4,2.1,7.5,5.9,7.5c3.8,0,5.9-3,5.9-7.5
			C207.3,86.2,205.2,83,201.4,83"/>
		<path class="st1" d="M225.8,99.2V87.1c0-2.6-1.3-4.1-3.8-4.1c-1.9,0-3.9,1.1-6.1,3.1v13h-1.7V81.8h1.3l0.4,2.6
			c2.1-1.9,4.1-3,6.4-3c3.6,0,5.3,2,5.3,5.5v12.2H225.8z"/>
	</g>
</g>
</svg>
