<?xml version="1.0" encoding="utf-8"?>
<!-- Generator: Adobe Illustrator 25.3.1, SVG Export Plug-In . SVG Version: 6.00 Build 0)  -->
<svg version="1.1" id="Layer_1" xmlns="http://www.w3.org/2000/svg" xmlns:xlink="http://www.w3.org/1999/xlink" x="0px" y="0px"
	 viewBox="0 0 235 115" style="enable-background:new 0 0 235 115;" xml:space="preserve">
<style type="text/css">
	.st0{fill:#FFEFD2;}
	.st1{fill:#2F302F;}
	.st2{fill:#33A544;}
	.st3{fill:#6ACEF5;}
	.st4{fill:#FEE105;}
	.st5{fill:#F2E916;}
	.st6{fill:#292E76;}
	.st7{fill:#F6901D;}
	.st8{fill-rule:evenodd;clip-rule:evenodd;fill:#0B7B3B;}
	.st9{fill-rule:evenodd;clip-rule:evenodd;fill:#EDD912;}
	.st10{fill-rule:evenodd;clip-rule:evenodd;fill:#9C59B5;}
	.st11{fill-rule:evenodd;clip-rule:evenodd;fill:#EB66AB;}
	.st12{fill-rule:evenodd;clip-rule:evenodd;fill:#FFA31C;}
	.st13{fill-rule:evenodd;clip-rule:evenodd;fill:#2BC2FF;}
	.st14{fill-rule:evenodd;clip-rule:evenodd;fill:#33CC99;}
	.st15{fill:#454545;}
	.st16{fill:#8DAE05;}
	.st17{fill:#009EBE;}
	.st18{fill:#00C4C9;}
	.st19{fill:#4376CD;}
	.st20{fill:#FFFFFF;}
	.st21{fill:#99CC00;}
	.st22{fill:#0A0B1D;}
	.st23{clip-path:url(#SVGID_2_);}
	.st24{fill:#DFF6E8;}
	.st25{fill:#A2E5BE;}
	.st26{fill:none;stroke:#90D6AC;stroke-width:1.9681;stroke-linecap:round;stroke-linejoin:round;stroke-miterlimit:10;}
	.st27{fill:none;stroke:#A2E5BE;stroke-width:2.6236;stroke-linecap:round;stroke-linejoin:round;stroke-miterlimit:10;}
	.st28{clip-path:url(#SVGID_2_);fill:none;stroke:#365BB8;stroke-width:12.1227;stroke-miterlimit:10;}
	.st29{clip-path:url(#SVGID_2_);fill:#79BBF7;}
	.st30{clip-path:url(#SVGID_2_);fill:#99CFFF;}
	.st31{fill:#79BBF7;}
	.st32{fill:#99CFFF;}
	.st33{fill:#4A7AF6;}
	.st34{fill:#D16181;}
	.st35{fill:#D7E0FF;}
	.st36{fill:#08A6FD;}
	.st37{fill:#90D6AC;}
	.st38{fill:#243D7C;}
	.st39{clip-path:url(#SVGID_2_);fill:#4A7AF6;}
	.st40{fill:none;stroke:#365BB8;stroke-width:18.6503;stroke-miterlimit:10;}
	.st41{fill:#BDD8FF;}
	.st42{clip-path:url(#SVGID_2_);fill:none;stroke:#365BB8;stroke-width:11.6489;stroke-miterlimit:10;}
	.st43{fill:#BE546D;}
	.st44{fill:#EDB39A;}
	.st45{fill:#F6C464;}
	.st46{fill:#AECDFF;}
	.st47{fill:#AF4664;}
	.st48{clip-path:url(#SVGID_2_);fill:#243D7C;}
	.st49{clip-path:url(#SVGID_2_);fill:none;}
	.st50{clip-path:url(#SVGID_4_);}
	.st51{fill:#00A8FF;}
	.st52{fill:#D6E3FC;}
	.st53{fill:#82DAD9;}
	.st54{fill:#E480D0;}
	.st55{fill:#FFDDD4;}
	.st56{fill:#FFD9D9;}
	.st57{fill:#FFF2E9;}
	.st58{fill:#C8FCF9;}
	.st59{fill:#FFBE00;}
	.st60{fill:#68D493;}
	.st61{fill:#00A7FF;}
	.st62{fill:#47A7F8;}
	.st63{fill:#365BB8;}
	.st64{clip-path:url(#SVGID_6_);}
	.st65{fill:#F9FAFB;}
	.st66{clip-path:url(#SVGID_8_);}
	.st67{clip-path:url(#SVGID_10_);}
	.st68{clip-path:url(#SVGID_12_);}
	.st69{fill:none;stroke:#FFFFFF;stroke-width:0.7631;stroke-linecap:round;stroke-linejoin:round;stroke-miterlimit:10;}
	.st70{opacity:0.79;fill:#68D493;}
	.st71{fill:none;stroke:#FFFFFF;stroke-width:2.0657;stroke-linecap:round;stroke-linejoin:round;stroke-miterlimit:10;}
	.st72{fill:none;stroke:#365BB8;stroke-width:1.4392;stroke-linecap:round;stroke-linejoin:round;stroke-miterlimit:10;}
	.st73{clip-path:url(#SVGID_14_);}
	.st74{fill:none;stroke:#4A7AF6;stroke-width:0.3309;stroke-linecap:round;stroke-linejoin:round;stroke-miterlimit:10;}
	.st75{clip-path:url(#SVGID_16_);}
	.st76{clip-path:url(#SVGID_18_);}
	.st77{clip-path:url(#SVGID_16_);fill:#FFFFFF;}
	.st78{clip-path:url(#SVGID_16_);fill:#00A8FF;}
	.st79{fill:#FFE5BB;}
	.st80{fill:none;stroke:#FFE5BB;stroke-width:1.3957;stroke-linecap:round;stroke-miterlimit:10;}
	.st81{fill:#EA4E4E;}
	.st82{fill:#B9924C;}
	.st83{fill:#F7C800;}
	.st84{clip-path:url(#SVGID_20_);}
	.st85{clip-path:url(#SVGID_2_);fill:#365BB8;}
	.st86{clip-path:url(#SVGID_2_);fill:none;stroke:#365BB8;stroke-width:18.6503;stroke-miterlimit:10;}
	.st87{clip-path:url(#SVGID_2_);fill:#D1D1D1;}
	.st88{fill:#EAEAEA;}
	.st89{fill:#E2E2E2;}
	.st90{fill:none;stroke:#000000;stroke-width:0.5136;stroke-miterlimit:10;}
	.st91{fill:#565656;}
	.st92{fill:#727272;}
	.st93{fill:#9B9B9B;}
	.st94{fill:#BABABA;}
	.st95{fill:#D1D1D1;}
	.st96{fill:#F4F4F4;}
	.st97{fill:#E28156;}
	.st98{fill:#63A4A2;}
	.st99{fill:#A96140;}
	.st100{fill:#B53535;}
	.st101{fill:#426E6D;}
	.st102{fill:#7C6332;}
	.st103{fill:#72412C;}
	.st104{fill:#565CC0;}
	.st105{fill:#3E4693;}
	.st106{fill:#2D3572;}
	.st107{fill:#7C2121;}
	.st108{fill:#8E3F52;}
	.st109{fill:#5F2B37;}
	.st110{fill:#70C3FA;}
	.st111{fill:#0D293E;}
	.st112{fill:#1F537C;}
	.st113{fill:#327DB9;}
	.st114{fill:#01A8FF;}
	.st115{fill:#C4E8FD;}
	.st116{fill:#E6F6FE;}
	.st117{fill:#CE904D;}
	.st118{fill:#161413;}
	.st119{fill:#443833;}
	.st120{fill:#4F4947;}
	.st121{fill:#F4B76E;}
	.st122{fill:#F5C0B7;}
	.st123{fill:#C07666;}
	.st124{fill:#D99480;}
	.st125{fill:#F3B39F;}
	.st126{fill:#F7D5D4;}
	.st127{fill:#BB7C5E;}
	.st128{fill:#834A41;}
	.st129{fill:#965B4B;}
	.st130{fill:#AA6D55;}
	.st131{fill:#C28A68;}
	.st132{fill:#D85D45;}
	.st133{fill:#FF9F9F;}
	.st134{fill:#E2A1B2;}
	.st135{fill:#F1DCE1;}
	.st136{fill:#819EF2;}
	.st137{fill:#B3CEFF;}
	.st138{fill:#F28C8C;}
	.st139{fill:#CE8699;}
	.st140{fill:#6F7FDD;}
	.st141{fill:#4E9F6F;}
	.st142{fill:#346B4A;}
	.st143{fill:#F7D4A1;}
	.st144{fill:#FCE4D6;}
	.st145{fill:#F9CFC5;}
	.st146{fill:#A0EADD;}
	.st147{fill:#85D3CC;}
	.st148{fill:#C0E7FF;}
	.st149{fill:none;stroke:#FFE5BB;stroke-width:4;stroke-linecap:round;stroke-linejoin:round;stroke-miterlimit:10;}
	.st150{fill:none;stroke:#FFE5BB;stroke-width:4;stroke-linecap:round;stroke-linejoin:round;}
	.st151{clip-path:url(#SVGID_24_);}
	.st152{fill:none;stroke:#FFE5BB;stroke-width:3;stroke-linecap:round;stroke-linejoin:round;}
	.st153{fill:#FBC04F;}
	.st154{fill:#FAD097;}
	.st155{fill:#10274F;}
	.st156{opacity:0.3;fill:#10274F;}
	.st157{fill-rule:evenodd;clip-rule:evenodd;fill:#9277C5;}
	.st158{fill-rule:evenodd;clip-rule:evenodd;fill:#771E8D;}
	.st159{filter:url(#Adobe_OpacityMaskFilter);}
	.st160{clip-path:url(#SVGID_29_);}
	.st161{enable-background:new    ;}
	.st162{clip-path:url(#SVGID_31_);}
	.st163{clip-path:url(#SVGID_33_);}
	.st164{clip-path:url(#SVGID_35_);}
	.st165{clip-path:url(#SVGID_35_);fill-rule:evenodd;clip-rule:evenodd;fill:#FFFFFF;}
	.st166{mask:url(#SVGID_27_);}
	.st167{clip-path:url(#SVGID_37_);}
	.st168{clip-path:url(#SVGID_39_);fill-rule:evenodd;clip-rule:evenodd;fill:#FFFFFF;}
	.st169{fill-rule:evenodd;clip-rule:evenodd;fill:#80699B;}
	.st170{fill:#4CA3A0;}
	.st171{fill:#86EADA;}
	.st172{fill:#E0F3FF;}
</style>
<g>
	<g>
		<path class="st6" d="M91.5,84.1h-9.9c-1.8,0-3.3-1.5-3.3-3.2V53.6c0-1.8,1.5-3.2,3.3-3.2h9.9c1.8,0,3.3,1.5,3.3,3.2v27.3
			C94.8,82.7,93.3,84.1,91.5,84.1z"/>
		<path class="st6" d="M137.2,54.5l-16.7,27.7c-0.8,1.4-1.7,1.9-2.7,1.9c-1,0-1.8-0.5-2.4-1.3L98.3,54.5c-0.2-0.4-0.3-0.8-0.3-1.3
			c0-1.5,1.2-2.8,2.7-2.8h10.1c1.5,0,2.7,1.3,2.7,2.8v15.5c0,1,0.8,1.8,1.9,1.8c0.3,0,0.6,0,0.9-0.2l9.2-5.5
			c0.9-0.5,1.2-1.7,0.7-2.5l-4.9-7.8c-0.2-0.4-0.3-0.8-0.3-1.3c0-1.5,1.2-2.8,2.7-2.8h11c1.5,0,2.7,1.3,2.7,2.8
			C137.5,53.7,137.4,54.1,137.2,54.5z"/>
		<path class="st6" d="M154.7,84.1h-9.9c-1.8,0-3.3-1.5-3.3-3.2V53.6c0-1.8,1.5-3.2,3.3-3.2h9.9c1.8,0,3.3,1.5,3.3,3.2v27.3
			C158,82.7,156.5,84.1,154.7,84.1z"/>
		<path class="st6" d="M190.9,84.1h-11.3c-9.4,0-17-7.6-17-16.9c0-9.3,7.6-16.8,17-16.8h11.3c1.5,0,2.9,1.2,2.9,2.8v5.6
			c0,1.5-1.3,2.8-2.8,2.8c-0.5,0-1-0.2-1.4-0.4l-9.9-5.9c-0.3-0.2-0.6-0.2-0.9-0.2c-1,0-1.9,0.8-1.9,1.8V72c0,1,0.9,1.9,2.5,1.9H191
			c1.6,0,2.8,1.3,2.8,2.8v4.7C193.8,82.9,192.5,84.1,190.9,84.1z"/>
		<path class="st6" d="M217.3,84.1h-16.1c-1.5,0-2.8-1.3-2.8-2.8v-5.6c0-1.5,1.3-2.9,2.8-2.9c0.5,0,1,0.2,1.5,0.5l11.4,6.5
			c0.4,0.2,0.8,0.5,1.3,0.5c1,0,1.9-0.8,1.9-1.8v-5.6c0-1-0.9-1.9-1.9-1.9h-14.2c-1.5,0-2.8-1.3-2.8-2.8v-4.7
			c0-7.2,5.9-13.1,13.2-13.1h16c1.6,0,2.8,1.2,2.8,2.8v5.6c0,1.5-1.3,2.8-2.8,2.8c-0.5,0-1-0.2-1.5-0.4l-11.3-6.6
			c-0.4-0.2-0.8-0.5-1.3-0.5c-1,0-1.9,0.8-1.9,1.8v5.7c0,1,0.9,1.9,1.9,1.9h14.1c1.6,0,2.8,1.3,2.8,2.8V71
			C230.5,78.3,224.6,84.1,217.3,84.1z"/>
		<g>
			<path class="st6" d="M12.7,46.9c-3.6,0-6.6-3-6.6-6.7s3-6.6,6.6-6.6c3.7,0,6.7,3,6.7,6.6S16.3,46.9,12.7,46.9z"/>
		</g>
		<path class="st6" d="M17.6,84.1H7.8c-1.8,0-3.3-1.5-3.3-3.2V53.6c0-1.8,1.5-3.2,3.3-3.2h9.9c1.8,0,3.3,1.5,3.3,3.2v27.3
			C20.9,82.7,19.4,84.1,17.6,84.1z"/>
	</g>
	<path class="st7" d="M69.7,65.1h-6.5l1.4,4.3c0,0.6-0.3,1.2-0.8,1.6c-0.5,0.4-1.2,0.5-1.7,0.3l-8.7-6.1c0,0-6.7,4.7-7.6,5.4
		c-0.9,0.8-1.8,0.8-2.6,0.2c-0.6-0.5-0.9-1.2-0.8-1.9l3-9.6l-7-5.1l-1.4-1c-0.4-0.5-0.6-1.3-0.4-2c0.2-0.6,0.7-1,1.3-1.2l10.5,0
		l3.2-9.4c0.3-0.7,1-1.2,1.8-1.2c0.7,0,1.4,0.4,1.7,1l3.2,9.6h11.4c2.2,0,4-1.8,4-4v-1.8v-8.5v-1.2c0-2-1.7-3.6-3.7-3.6H51.7
		C36.9,30.9,25,42.7,25,57.5c0,14.7,11.9,26.7,26.7,26.7h18.3c2,0,3.7-1.6,3.7-3.6v-1.8v-4.3V69C73.7,66.8,72,65.1,69.7,65.1z"/>
</g>
</svg>
