<?xml version="1.0" encoding="utf-8"?>
<!-- Generator: Adobe Illustrator 25.3.1, SVG Export Plug-In . SVG Version: 6.00 Build 0)  -->
<svg version="1.1" id="Layer_1" xmlns="http://www.w3.org/2000/svg" xmlns:xlink="http://www.w3.org/1999/xlink" x="0px" y="0px"
	 viewBox="0 0 235 115" style="enable-background:new 0 0 235 115;" xml:space="preserve">
<style type="text/css">
	.st0{fill:#FFEFD2;}
	.st1{fill:#2F302F;}
	.st2{fill:#33A544;}
	.st3{fill:#6ACEF5;}
	.st4{fill:#FEE105;}
	.st5{fill:#F2E916;}
	.st6{fill:#292E76;}
	.st7{fill:#F6901D;}
	.st8{fill-rule:evenodd;clip-rule:evenodd;fill:#0B7B3B;}
	.st9{fill-rule:evenodd;clip-rule:evenodd;fill:#EDD912;}
	.st10{fill-rule:evenodd;clip-rule:evenodd;fill:#9C59B5;}
	.st11{fill-rule:evenodd;clip-rule:evenodd;fill:#EB66AB;}
	.st12{fill-rule:evenodd;clip-rule:evenodd;fill:#FFA31C;}
	.st13{fill-rule:evenodd;clip-rule:evenodd;fill:#2BC2FF;}
	.st14{fill-rule:evenodd;clip-rule:evenodd;fill:#33CC99;}
	.st15{fill:#454545;}
	.st16{fill:#8DAE05;}
	.st17{fill:#009EBE;}
	.st18{fill:#00C4C9;}
	.st19{fill:#4376CD;}
	.st20{fill:#FFFFFF;}
	.st21{fill:#99CC00;}
	.st22{fill:#0A0B1D;}
	.st23{clip-path:url(#SVGID_2_);}
	.st24{fill:#DFF6E8;}
	.st25{fill:#A2E5BE;}
	.st26{fill:none;stroke:#90D6AC;stroke-width:1.9681;stroke-linecap:round;stroke-linejoin:round;stroke-miterlimit:10;}
	.st27{fill:none;stroke:#A2E5BE;stroke-width:2.6236;stroke-linecap:round;stroke-linejoin:round;stroke-miterlimit:10;}
	.st28{clip-path:url(#SVGID_2_);fill:none;stroke:#365BB8;stroke-width:12.1227;stroke-miterlimit:10;}
	.st29{clip-path:url(#SVGID_2_);fill:#79BBF7;}
	.st30{clip-path:url(#SVGID_2_);fill:#99CFFF;}
	.st31{fill:#79BBF7;}
	.st32{fill:#99CFFF;}
	.st33{fill:#4A7AF6;}
	.st34{fill:#D16181;}
	.st35{fill:#D7E0FF;}
	.st36{fill:#08A6FD;}
	.st37{fill:#90D6AC;}
	.st38{fill:#243D7C;}
	.st39{clip-path:url(#SVGID_2_);fill:#4A7AF6;}
	.st40{fill:none;stroke:#365BB8;stroke-width:18.6503;stroke-miterlimit:10;}
	.st41{fill:#BDD8FF;}
	.st42{clip-path:url(#SVGID_2_);fill:none;stroke:#365BB8;stroke-width:11.6489;stroke-miterlimit:10;}
	.st43{fill:#BE546D;}
	.st44{fill:#EDB39A;}
	.st45{fill:#F6C464;}
	.st46{fill:#AECDFF;}
	.st47{fill:#AF4664;}
	.st48{clip-path:url(#SVGID_2_);fill:#243D7C;}
	.st49{clip-path:url(#SVGID_2_);fill:none;}
	.st50{clip-path:url(#SVGID_4_);}
	.st51{fill:#00A8FF;}
	.st52{fill:#D6E3FC;}
	.st53{fill:#82DAD9;}
	.st54{fill:#E480D0;}
	.st55{fill:#FFDDD4;}
	.st56{fill:#FFD9D9;}
	.st57{fill:#FFF2E9;}
	.st58{fill:#C8FCF9;}
	.st59{fill:#FFBE00;}
	.st60{fill:#68D493;}
	.st61{fill:#00A7FF;}
	.st62{fill:#47A7F8;}
	.st63{fill:#365BB8;}
	.st64{clip-path:url(#SVGID_6_);}
	.st65{fill:#F9FAFB;}
	.st66{clip-path:url(#SVGID_8_);}
	.st67{clip-path:url(#SVGID_10_);}
	.st68{clip-path:url(#SVGID_12_);}
	.st69{fill:none;stroke:#FFFFFF;stroke-width:0.7631;stroke-linecap:round;stroke-linejoin:round;stroke-miterlimit:10;}
	.st70{opacity:0.79;fill:#68D493;}
	.st71{fill:none;stroke:#FFFFFF;stroke-width:2.0657;stroke-linecap:round;stroke-linejoin:round;stroke-miterlimit:10;}
	.st72{fill:none;stroke:#365BB8;stroke-width:1.4392;stroke-linecap:round;stroke-linejoin:round;stroke-miterlimit:10;}
	.st73{clip-path:url(#SVGID_14_);}
	.st74{fill:none;stroke:#4A7AF6;stroke-width:0.3309;stroke-linecap:round;stroke-linejoin:round;stroke-miterlimit:10;}
	.st75{clip-path:url(#SVGID_16_);}
	.st76{clip-path:url(#SVGID_18_);}
	.st77{clip-path:url(#SVGID_16_);fill:#FFFFFF;}
	.st78{clip-path:url(#SVGID_16_);fill:#00A8FF;}
	.st79{fill:#FFE5BB;}
	.st80{fill:none;stroke:#FFE5BB;stroke-width:1.3957;stroke-linecap:round;stroke-miterlimit:10;}
	.st81{fill:#EA4E4E;}
	.st82{fill:#B9924C;}
	.st83{fill:#F7C800;}
	.st84{clip-path:url(#SVGID_20_);}
	.st85{clip-path:url(#SVGID_2_);fill:#365BB8;}
	.st86{clip-path:url(#SVGID_2_);fill:none;stroke:#365BB8;stroke-width:18.6503;stroke-miterlimit:10;}
	.st87{clip-path:url(#SVGID_2_);fill:#D1D1D1;}
	.st88{fill:#EAEAEA;}
	.st89{fill:#E2E2E2;}
	.st90{fill:none;stroke:#000000;stroke-width:0.5136;stroke-miterlimit:10;}
	.st91{fill:#565656;}
	.st92{fill:#727272;}
	.st93{fill:#9B9B9B;}
	.st94{fill:#BABABA;}
	.st95{fill:#D1D1D1;}
	.st96{fill:#F4F4F4;}
	.st97{fill:#E28156;}
	.st98{fill:#63A4A2;}
	.st99{fill:#A96140;}
	.st100{fill:#B53535;}
	.st101{fill:#426E6D;}
	.st102{fill:#7C6332;}
	.st103{fill:#72412C;}
	.st104{fill:#565CC0;}
	.st105{fill:#3E4693;}
	.st106{fill:#2D3572;}
	.st107{fill:#7C2121;}
	.st108{fill:#8E3F52;}
	.st109{fill:#5F2B37;}
	.st110{fill:#70C3FA;}
	.st111{fill:#0D293E;}
	.st112{fill:#1F537C;}
	.st113{fill:#327DB9;}
	.st114{fill:#01A8FF;}
	.st115{fill:#C4E8FD;}
	.st116{fill:#E6F6FE;}
	.st117{fill:#CE904D;}
	.st118{fill:#161413;}
	.st119{fill:#443833;}
	.st120{fill:#4F4947;}
	.st121{fill:#F4B76E;}
	.st122{fill:#F5C0B7;}
	.st123{fill:#C07666;}
	.st124{fill:#D99480;}
	.st125{fill:#F3B39F;}
	.st126{fill:#F7D5D4;}
	.st127{fill:#BB7C5E;}
	.st128{fill:#834A41;}
	.st129{fill:#965B4B;}
	.st130{fill:#AA6D55;}
	.st131{fill:#C28A68;}
	.st132{fill:#D85D45;}
	.st133{fill:#FF9F9F;}
	.st134{fill:#E2A1B2;}
	.st135{fill:#F1DCE1;}
	.st136{fill:#819EF2;}
	.st137{fill:#B3CEFF;}
	.st138{fill:#F28C8C;}
	.st139{fill:#CE8699;}
	.st140{fill:#6F7FDD;}
	.st141{fill:#4E9F6F;}
	.st142{fill:#346B4A;}
	.st143{fill:#F7D4A1;}
	.st144{fill:#FCE4D6;}
	.st145{fill:#F9CFC5;}
	.st146{fill:#A0EADD;}
	.st147{fill:#85D3CC;}
	.st148{fill:#C0E7FF;}
	.st149{fill:none;stroke:#FFE5BB;stroke-width:4;stroke-linecap:round;stroke-linejoin:round;stroke-miterlimit:10;}
	.st150{fill:none;stroke:#FFE5BB;stroke-width:4;stroke-linecap:round;stroke-linejoin:round;}
	.st151{clip-path:url(#SVGID_24_);}
	.st152{fill:none;stroke:#FFE5BB;stroke-width:3;stroke-linecap:round;stroke-linejoin:round;}
	.st153{fill:#FBC04F;}
	.st154{fill:#FAD097;}
	.st155{fill:#10274F;}
	.st156{opacity:0.3;fill:#10274F;}
	.st157{fill-rule:evenodd;clip-rule:evenodd;fill:#9277C5;}
	.st158{fill-rule:evenodd;clip-rule:evenodd;fill:#771E8D;}
	.st159{filter:url(#Adobe_OpacityMaskFilter);}
	.st160{clip-path:url(#SVGID_29_);}
	.st161{enable-background:new    ;}
	.st162{clip-path:url(#SVGID_31_);}
	.st163{clip-path:url(#SVGID_33_);}
	.st164{clip-path:url(#SVGID_35_);}
	.st165{clip-path:url(#SVGID_35_);fill-rule:evenodd;clip-rule:evenodd;fill:#FFFFFF;}
	.st166{mask:url(#SVGID_27_);}
	.st167{clip-path:url(#SVGID_37_);}
	.st168{clip-path:url(#SVGID_39_);fill-rule:evenodd;clip-rule:evenodd;fill:#FFFFFF;}
	.st169{fill-rule:evenodd;clip-rule:evenodd;fill:#80699B;}
	.st170{fill:#4CA3A0;}
	.st171{fill:#86EADA;}
	.st172{fill:#E0F3FF;}
</style>
<g>
	<path class="st20" d="M117.5,0C85.7,0,60,25.7,60,57.5c0,31.8,25.7,57.5,57.5,57.5c31.8,0,57.5-25.7,57.5-57.5
		C175,25.7,149.3,0,117.5,0"/>
	<path class="st21" d="M118,3.7c-29.7,0-53.8,24.1-53.8,53.8c0,29.7,24.1,53.8,53.8,53.8c29.7,0,53.8-24.1,53.8-53.8
		C171.8,27.8,147.7,3.7,118,3.7"/>
	<path class="st20" d="M78.9,33.4c0-6.7,3.7-12.8,9.7-17.4c8.4-6.2,18.8-9.8,29.9-9.7c10.7,0.1,20.7,3.6,28.9,9.5
		c6.4,4.8,10.3,11.2,10.2,18.2c0,7.9-5.1,14.9-13.1,19.8l0,0c-7.7,4.7-16.7,7.4-26.4,7.3c-11.5-0.1-22-4.1-30.5-10.8
		C82.1,45.6,78.8,39.7,78.9,33.4"/>
	<path class="st22" d="M125.4,24.1c2-1.1,2.4-4,2.4-4.9c0-4-3.1-6.7-8.7-6.7c-2.1,0-4.4,0.3-7.6,0.9v0c-0.2,0-0.3,0.2-0.3,0.4
		c0,0,0,0.1,0,0.1c0.9,5.2,0.8,13.2,0.1,21.3c0,0,0,0.1,0,0.1c0,0.2,0.1,0.3,0.3,0.4c2,0.4,6,0.8,8.2,0.8c5.3,0,9.3-2.9,9.3-7.1
		C128.9,26.8,127.8,25.2,125.4,24.1 M118.9,17.4c2,0,3.3,1,3.4,2.5c0,2.8-4.6,2.4-5,2.3l0-4.6C117.3,17.6,117.5,17.4,118.9,17.4
		 M119.5,31.7c-0.8,0-1.5-0.1-2.2-0.2l0-4.7c0,0,1.1-0.1,1.8-0.1c1.7,0,3.9,0.6,3.8,2.3C122.9,30.4,122.5,31.7,119.5,31.7"/>
	<path class="st22" d="M97.2,15.3c-2.3,0.5-4.9,1.4-6.5,2.2c0,0,0,0,0,0c-0.4,0.1-0.2,0.5-0.2,0.5c1.7,3.8,4.5,16.8,5,21.2v0
		c0,0,0,0.1,0,0.1c0,0.2,0.2,0.3,0.4,0.3c0,0,5.5-1.7,5.5-1.7c0.2,0,0.3-0.2,0.3-0.4c0,0,0,0,0,0c0-0.1-0.1-0.3-0.1-0.5l-0.3-1.1
		l-0.9-4.1c0,0,1.4-0.3,1.5-0.3c5.9-1.4,9-5.8,8-10.6C108.7,16,103.7,13.8,97.2,15.3 M100,26.5c-0.4,0.1-0.9,0.1-0.9,0.1l-1.4-6.1
		c0,0,1.1-0.4,1.6-0.5c2.3-0.5,4.1,0.5,4.5,2.4C104.2,24.4,103,25.8,100,26.5"/>
	<path class="st22" d="M142.6,21.9c0.1,0.1,0.4,0.2,0.5,0.2c0.2,0,0.2-0.1,0.2-0.1c0,0,0,0,0,0c0.4-0.3,0,0.1,3-3.5
		c0.1-0.1,0.1-0.1,0.1-0.2c0-0.2-0.1-0.3-0.1-0.3c0,0-2.9-2.7-7.1-3.1c-5.2-0.6-8.9,2.6-9.2,7.1c-0.2,3.8,2.4,6,7.6,7.7
		c3.7,1.2,2.4,3.7,0.2,3.6c-1.5-0.1-3.7-1.1-5-2.4c0,0-0.1-0.1-0.2-0.1c-0.1,0-0.3,0-0.3,0.1l-3,3.4c0,0-0.1,0.1-0.1,0.2
		c0,0.2,0.1,0.3,0.1,0.3c2.1,2.2,5,3.4,7.9,3.6c4.9,0.3,8.5-2.6,8.8-6.9c0.4-4.6-3.6-6.3-6.4-7.2c-2.4-0.8-3.4-1.5-3.3-2.6
		C136.2,20.7,138.2,19.2,142.6,21.9"/>
	<path class="st20" d="M153.7,61.4c3.2,1.3,6.8-0.2,8.1-3.3c1.3-3.2-0.2-6.8-3.3-8.1c-3.2-1.3-6.8,0.2-8.1,3.3
		C149,56.5,150.5,60.1,153.7,61.4"/>
	<path class="st20" d="M141.1,76.1c-0.1-3.1-2.7-5.6-5.8-5.5c-3.1,0.1-5.6,2.7-5.5,5.8c0.1,3.1,2.7,5.6,5.8,5.5
		C138.8,81.8,141.2,79.2,141.1,76.1"/>
	<path class="st20" d="M112.1,94.1c5.5-1.4,8.8-6.9,7.5-12.3c-1.4-5.5-6.9-8.8-12.4-7.4c-5.5,1.4-8.8,6.9-7.5,12.3
		C101,92.2,106.6,95.5,112.1,94.1"/>
	<path class="st22" d="M130.7,95.3c1.4-1,1.8-3,0.8-4.5c-1-1.4-3-1.8-4.5-0.8c-1.5,1-1.8,3-0.8,4.5c0.5,0.7,1.2,1.2,2.1,1.3
		C129.2,96,130,95.8,130.7,95.3 M128,93.3c-0.3-0.5-0.2-1.1,0.2-1.4c0.5-0.3,1.1-0.2,1.4,0.2c0.3,0.5,0.2,1.1-0.2,1.4
		c-0.2,0.2-0.5,0.2-0.8,0.2C128.4,93.6,128.2,93.5,128,93.3"/>
	<path class="st22" d="M135.9,95.7c-4.3,5.3-11.3,5.9-11.4,5.9l0,0l-0.1,0c-8.2,1.3-14.6-2.7-14.7-2.7c-0.6-0.4-1.3-0.2-1.7,0.4
		c-0.4,0.6-0.2,1.3,0.4,1.7c0.3,0.2,7.2,4.5,16.3,3.1c0.6,0,8.2-0.8,13.1-6.8c0.2-0.2,0.3-0.5,0.3-0.8c0-0.4-0.2-0.7-0.5-1
		C137.1,95.1,136.3,95.2,135.9,95.7"/>
	<path class="st22" d="M106.8,73.2c-3,0.7-5.5,2.6-7.1,5.2c-1.6,2.6-2,5.7-1.3,8.6c1.5,6.1,7.8,9.8,13.9,8.3c3-0.7,5.5-2.6,7.1-5.2
		c1.6-2.6,2-5.7,1.3-8.6C119.2,75.4,113,71.7,106.8,73.2 M100.9,86.4c-0.6-2.3-0.2-4.7,1-6.8c1.2-2.1,3.2-3.5,5.6-4.1
		c4.8-1.2,9.7,1.7,10.9,6.5c0.2,0.6,0.2,1.2,0.3,1.9c0.1,1.7-0.4,3.4-1.3,4.9c-1.2,2.1-3.2,3.5-5.6,4.1
		C107,94.1,102.1,91.2,100.9,86.4"/>
	<path class="st22" d="M104,89.2c2,0.3,3.9-1.2,4.1-3.2c0.3-2-1.2-3.9-3.2-4.1c-2-0.3-3.9,1.2-4.1,3.2C100.5,87.1,102,89,104,89.2"
		/>
	<path class="st22" d="M128.7,76.5c0.1,3.7,3.3,6.7,7,6.5c3.7-0.1,6.6-3.3,6.5-7c-0.1-3.7-3.3-6.6-7-6.5
		C131.5,69.7,128.6,72.8,128.7,76.5 M130.7,76.4c-0.1-2.6,2-4.8,4.6-4.9c2.6-0.1,4.8,2,4.9,4.6c0.1,2.6-2,4.8-4.6,4.9
		C133,81.1,130.8,79.1,130.7,76.4"/>
	<path class="st22" d="M132.9,79.5c1.4,0.2,2.6-0.8,2.8-2.1c0.2-1.4-0.8-2.6-2.1-2.8c-1.4-0.2-2.6,0.8-2.8,2.1
		C130.6,78.1,131.6,79.3,132.9,79.5"/>
	<path class="st22" d="M147.5,77.1c-1.5-7.4-5.7-13.9-11.9-18.3h0c0,0,0,0,0,0c-0.2-0.2-0.5-0.3-0.7-0.5c-0.9-0.6-1.9-1.2-2.9-1.7
		c-7.1-3.8-18.7-7.5-45.4,3.3l4.9,4.6L81.7,68l7.5,4.9l-8.7,3.2l8.2,5.8c-2.7,1.4-4.6,4.1-4.7,7.4c-0.1,4.7,3.6,8.6,8.3,8.7
		c0.7,0,1.4-0.1,2-0.2c6.3,9.7,18.1,15.3,30.2,13.1c7.5-1.4,14-5.5,18.4-11.7C147.4,92.6,149,84.8,147.5,77.1 M92.4,95.5
		c-3.4-0.1-6-2.9-6-6.2c0.1-2.4,1.5-4.5,3.7-5.4c0.1,1.2,0.2,2.5,0.5,3.7c0.6,2.8,1.5,5.4,2.8,7.9C93,95.5,92.7,95.5,92.4,95.5
		 M140.7,97.7c-4,5.6-9.9,9.4-16.7,10.7c-14.4,2.7-28.4-6.8-31.3-21.2c-1.1-5.5-0.4-11,1.8-15.7l37.9-11.7c0.3,0.2,0.6,0.4,0.9,0.6
		c6.1,4,10.2,10.1,11.6,17.2C146.4,84.6,144.9,91.8,140.7,97.7"/>
	<path class="st20" d="M147.9,65c-1,1.6-0.5,3.6,1.1,4.6c1.6,1,3.6,0.5,4.6-1.1c1-1.6,0.5-3.6-1.1-4.6C150.9,63,148.9,63.5,147.9,65
		"/>
	<path class="st22" d="M114.9,50.4L114.9,50.4l-0.2-0.9l-0.1-1.7l0-0.1l-0.2-5.1l0-0.1l0-1.6l0.1-0.8l0,0c0,0,0-0.1-0.1-0.1
		c0,0-0.7,0-1.4,0.1c-0.7,0-1.4,0.1-1.4,0.1c0,0-0.1,0-0.1,0.1h0l0,0l0.2,0.8l0.1,1.6l0,0.1l0.2,5.1l0,0.1l0,1.7l-0.1,0.9
		c0,0,0,0,0,0c0,0.1,0,0.1,0.1,0.1l0.1,0l2.6-0.1l0.1,0C114.8,50.5,114.9,50.4,114.9,50.4C114.9,50.4,114.9,50.4,114.9,50.4"/>
	<path class="st22" d="M127.5,45.6c-0.1,3.3-3.2,5.2-6.4,5.1c-0.7,0-0.9,0-1.6-0.1c-0.7-0.1-1.6-0.1-1.6-0.1l-0.1,0
		c0,0-0.1,0-0.1-0.1c0,0,0,0,0,0h0l0.2-0.9l0.1-1.7l0-0.1l0.2-5.2l0-0.1l0-1.7l-0.1-0.8l0,0c0,0,0-0.1,0.1-0.1c0,0,0.7,0,0.9,0
		c0.4,0,1.5-0.1,2.3,0C124.9,40,127.6,42.2,127.5,45.6 M121.5,42.2c-0.2,0-0.4,0-0.6,0l0,0.3v0.1l-0.2,5.2v0.1l0,0.6
		c0.2,0,0.3,0.1,0.5,0.1c1.7,0.1,3.4-0.9,3.5-2.8C124.8,43.6,123.1,42.2,121.5,42.2"/>
	<path class="st22" d="M109.7,50.5l-4.6-4.4c1-1.1,2.1-2.2,3.2-3.2c0,0,0,0,0,0c0,0,0,0,0-0.1c0,0,0,0,0-0.1l-1.8-1.8c0,0,0,0-0.1,0
		c0,0,0,0,0,0c0,0,0,0,0,0c-1.8,1.5-3.4,3.4-4.9,5.3l-0.4-2l0-0.1l-0.2-1.6l0-0.8l0,0c0,0,0-0.1-0.1-0.1c0,0-0.7,0.1-1.4,0.3
		C98.7,42,98,42.1,98,42.1c0,0-0.1,0.1-0.1,0.1v0l0.3,0.8l0.3,1.6l0,0.1l0.9,5l0,0.1l0.3,1.7l0,0.9l0,0c0,0,0,0,0,0
		c0,0,0.1,0.1,0.1,0.1v0l0.1,0l2.5-0.5l0.1,0c0,0,0.1,0,0.1-0.1c0,0,0,0,0,0h0l-0.3-0.9l-0.2-1l0-0.1c0.4-0.6,0.8-1.3,1.3-1.9l3,3.1
		v0c0,0,0,0,0.1,0c0,0,0,0,0,0v0l3.1-0.6v0c0,0,0,0,0,0C109.8,50.6,109.8,50.6,109.7,50.5C109.8,50.5,109.8,50.5,109.7,50.5"/>
	<path class="st22" d="M138.5,49.2c0.6-4.6-6.2-3.8-6-5.3c0.1-1,2.9-1.3,4.9,0.9c0,0,0,0,0,0c0,0,0,0,0,0c0,0,0.1,0,0.1,0v0
		c0.3-0.3,1.4-1.5,1.6-1.8c0,0,0,0,0,0c0,0,0,0,0,0c0,0,0,0,0-0.1h0c0,0,0,0,0,0c0,0,0,0,0,0c-1.6-2.7-8.8-3.8-9.4,0.6
		c-0.6,4.3,6.4,4.1,6.1,5.4c-0.3,1.3-3.9,1-5.3-1.3c0,0,0,0-0.1,0c0,0,0,0-0.1,0c-0.3,0.3-1.6,1.3-1.9,1.6c0,0,0,0,0,0c0,0,0,0,0,0
		c0,0,0,0,0,0.1c0,0,0,0,0,0C131.3,53.4,137.9,53.7,138.5,49.2"/>
</g>
</svg>
