<?xml version="1.0" encoding="utf-8"?>
<!-- Generator: Adobe Illustrator 25.3.1, SVG Export Plug-In . SVG Version: 6.00 Build 0)  -->
<svg version="1.1" id="Layer_1" xmlns="http://www.w3.org/2000/svg" xmlns:xlink="http://www.w3.org/1999/xlink" x="0px" y="0px"
	 viewBox="0 0 235 115" style="enable-background:new 0 0 235 115;" xml:space="preserve">
<style type="text/css">
	.st0{fill:#FFEFD2;}
	.st1{fill:#2F302F;}
	.st2{fill:#33A544;}
	.st3{fill:#6ACEF5;}
	.st4{fill:#FEE105;}
	.st5{fill:#F2E916;}
	.st6{fill:#292E76;}
	.st7{fill:#F6901D;}
	.st8{fill-rule:evenodd;clip-rule:evenodd;fill:#0B7B3B;}
	.st9{fill-rule:evenodd;clip-rule:evenodd;fill:#EDD912;}
	.st10{fill-rule:evenodd;clip-rule:evenodd;fill:#9C59B5;}
	.st11{fill-rule:evenodd;clip-rule:evenodd;fill:#EB66AB;}
	.st12{fill-rule:evenodd;clip-rule:evenodd;fill:#FFA31C;}
	.st13{fill-rule:evenodd;clip-rule:evenodd;fill:#2BC2FF;}
	.st14{fill-rule:evenodd;clip-rule:evenodd;fill:#33CC99;}
	.st15{fill:#454545;}
	.st16{fill:#8DAE05;}
	.st17{fill:#009EBE;}
	.st18{fill:#00C4C9;}
	.st19{fill:#4376CD;}
	.st20{fill:#FFFFFF;}
	.st21{fill:#99CC00;}
	.st22{fill:#0A0B1D;}
	.st23{clip-path:url(#SVGID_2_);}
	.st24{fill:#DFF6E8;}
	.st25{fill:#A2E5BE;}
	.st26{fill:none;stroke:#90D6AC;stroke-width:1.9681;stroke-linecap:round;stroke-linejoin:round;stroke-miterlimit:10;}
	.st27{fill:none;stroke:#A2E5BE;stroke-width:2.6236;stroke-linecap:round;stroke-linejoin:round;stroke-miterlimit:10;}
	.st28{clip-path:url(#SVGID_2_);fill:none;stroke:#365BB8;stroke-width:12.1227;stroke-miterlimit:10;}
	.st29{clip-path:url(#SVGID_2_);fill:#79BBF7;}
	.st30{clip-path:url(#SVGID_2_);fill:#99CFFF;}
	.st31{fill:#79BBF7;}
	.st32{fill:#99CFFF;}
	.st33{fill:#4A7AF6;}
	.st34{fill:#D16181;}
	.st35{fill:#D7E0FF;}
	.st36{fill:#08A6FD;}
	.st37{fill:#90D6AC;}
	.st38{fill:#243D7C;}
	.st39{clip-path:url(#SVGID_2_);fill:#4A7AF6;}
	.st40{fill:none;stroke:#365BB8;stroke-width:18.6503;stroke-miterlimit:10;}
	.st41{fill:#BDD8FF;}
	.st42{clip-path:url(#SVGID_2_);fill:none;stroke:#365BB8;stroke-width:11.6489;stroke-miterlimit:10;}
	.st43{fill:#BE546D;}
	.st44{fill:#EDB39A;}
	.st45{fill:#F6C464;}
	.st46{fill:#AECDFF;}
	.st47{fill:#AF4664;}
	.st48{clip-path:url(#SVGID_2_);fill:#243D7C;}
	.st49{clip-path:url(#SVGID_2_);fill:none;}
	.st50{clip-path:url(#SVGID_4_);}
	.st51{fill:#00A8FF;}
	.st52{fill:#D6E3FC;}
	.st53{fill:#82DAD9;}
	.st54{fill:#E480D0;}
	.st55{fill:#FFDDD4;}
	.st56{fill:#FFD9D9;}
	.st57{fill:#FFF2E9;}
	.st58{fill:#C8FCF9;}
	.st59{fill:#FFBE00;}
	.st60{fill:#68D493;}
	.st61{fill:#00A7FF;}
	.st62{fill:#47A7F8;}
	.st63{fill:#365BB8;}
	.st64{clip-path:url(#SVGID_6_);}
	.st65{fill:#F9FAFB;}
	.st66{clip-path:url(#SVGID_8_);}
	.st67{clip-path:url(#SVGID_10_);}
	.st68{clip-path:url(#SVGID_12_);}
	.st69{fill:none;stroke:#FFFFFF;stroke-width:0.7631;stroke-linecap:round;stroke-linejoin:round;stroke-miterlimit:10;}
	.st70{opacity:0.79;fill:#68D493;}
	.st71{fill:none;stroke:#FFFFFF;stroke-width:2.0657;stroke-linecap:round;stroke-linejoin:round;stroke-miterlimit:10;}
	.st72{fill:none;stroke:#365BB8;stroke-width:1.4392;stroke-linecap:round;stroke-linejoin:round;stroke-miterlimit:10;}
	.st73{clip-path:url(#SVGID_14_);}
	.st74{fill:none;stroke:#4A7AF6;stroke-width:0.3309;stroke-linecap:round;stroke-linejoin:round;stroke-miterlimit:10;}
	.st75{clip-path:url(#SVGID_16_);}
	.st76{clip-path:url(#SVGID_18_);}
	.st77{clip-path:url(#SVGID_16_);fill:#FFFFFF;}
	.st78{clip-path:url(#SVGID_16_);fill:#00A8FF;}
	.st79{fill:#FFE5BB;}
	.st80{fill:none;stroke:#FFE5BB;stroke-width:1.3957;stroke-linecap:round;stroke-miterlimit:10;}
	.st81{fill:#EA4E4E;}
	.st82{fill:#B9924C;}
	.st83{fill:#F7C800;}
	.st84{clip-path:url(#SVGID_20_);}
	.st85{clip-path:url(#SVGID_2_);fill:#365BB8;}
	.st86{clip-path:url(#SVGID_2_);fill:none;stroke:#365BB8;stroke-width:18.6503;stroke-miterlimit:10;}
	.st87{clip-path:url(#SVGID_2_);fill:#D1D1D1;}
	.st88{fill:#EAEAEA;}
	.st89{fill:#E2E2E2;}
	.st90{fill:none;stroke:#000000;stroke-width:0.5136;stroke-miterlimit:10;}
	.st91{fill:#565656;}
	.st92{fill:#727272;}
	.st93{fill:#9B9B9B;}
	.st94{fill:#BABABA;}
	.st95{fill:#D1D1D1;}
	.st96{fill:#F4F4F4;}
	.st97{fill:#E28156;}
	.st98{fill:#63A4A2;}
	.st99{fill:#A96140;}
	.st100{fill:#B53535;}
	.st101{fill:#426E6D;}
	.st102{fill:#7C6332;}
	.st103{fill:#72412C;}
	.st104{fill:#565CC0;}
	.st105{fill:#3E4693;}
	.st106{fill:#2D3572;}
	.st107{fill:#7C2121;}
	.st108{fill:#8E3F52;}
	.st109{fill:#5F2B37;}
	.st110{fill:#70C3FA;}
	.st111{fill:#0D293E;}
	.st112{fill:#1F537C;}
	.st113{fill:#327DB9;}
	.st114{fill:#01A8FF;}
	.st115{fill:#C4E8FD;}
	.st116{fill:#E6F6FE;}
	.st117{fill:#CE904D;}
	.st118{fill:#161413;}
	.st119{fill:#443833;}
	.st120{fill:#4F4947;}
	.st121{fill:#F4B76E;}
	.st122{fill:#F5C0B7;}
	.st123{fill:#C07666;}
	.st124{fill:#D99480;}
	.st125{fill:#F3B39F;}
	.st126{fill:#F7D5D4;}
	.st127{fill:#BB7C5E;}
	.st128{fill:#834A41;}
	.st129{fill:#965B4B;}
	.st130{fill:#AA6D55;}
	.st131{fill:#C28A68;}
	.st132{fill:#D85D45;}
	.st133{fill:#FF9F9F;}
	.st134{fill:#E2A1B2;}
	.st135{fill:#F1DCE1;}
	.st136{fill:#819EF2;}
	.st137{fill:#B3CEFF;}
	.st138{fill:#F28C8C;}
	.st139{fill:#CE8699;}
	.st140{fill:#6F7FDD;}
	.st141{fill:#4E9F6F;}
	.st142{fill:#346B4A;}
	.st143{fill:#F7D4A1;}
	.st144{fill:#FCE4D6;}
	.st145{fill:#F9CFC5;}
	.st146{fill:#A0EADD;}
	.st147{fill:#85D3CC;}
	.st148{fill:#C0E7FF;}
	.st149{fill:none;stroke:#FFE5BB;stroke-width:4;stroke-linecap:round;stroke-linejoin:round;stroke-miterlimit:10;}
	.st150{fill:none;stroke:#FFE5BB;stroke-width:4;stroke-linecap:round;stroke-linejoin:round;}
	.st151{clip-path:url(#SVGID_24_);}
	.st152{fill:none;stroke:#FFE5BB;stroke-width:3;stroke-linecap:round;stroke-linejoin:round;}
	.st153{fill:#FBC04F;}
	.st154{fill:#FAD097;}
	.st155{fill:#10274F;}
	.st156{opacity:0.3;fill:#10274F;}
	.st157{fill-rule:evenodd;clip-rule:evenodd;fill:#9277C5;}
	.st158{fill-rule:evenodd;clip-rule:evenodd;fill:#771E8D;}
	.st159{filter:url(#Adobe_OpacityMaskFilter);}
	.st160{clip-path:url(#SVGID_29_);}
	.st161{enable-background:new    ;}
	.st162{clip-path:url(#SVGID_31_);}
	.st163{clip-path:url(#SVGID_33_);}
	.st164{clip-path:url(#SVGID_35_);}
	.st165{clip-path:url(#SVGID_35_);fill-rule:evenodd;clip-rule:evenodd;fill:#FFFFFF;}
	.st166{mask:url(#SVGID_27_);}
	.st167{clip-path:url(#SVGID_37_);}
	.st168{clip-path:url(#SVGID_39_);fill-rule:evenodd;clip-rule:evenodd;fill:#FFFFFF;}
	.st169{fill-rule:evenodd;clip-rule:evenodd;fill:#80699B;}
	.st170{fill:#4CA3A0;}
	.st171{fill:#86EADA;}
	.st172{fill:#E0F3FF;}
</style>
<g id="desmos" transform="translate(523.000000, 195.000000)">
	<path id="Fill-1" class="st8" d="M-363.7-145.8l-0.1-0.4c-1-0.2-2-0.7-2.8-0.5c-0.6,0.2-1.3,1.3-1.3,2.1c-0.1,6.8-0.1,13.7,0,20.5
		c0,1.3,0.7,2.1,2,2.1c1.3,0,2-0.7,2.2-2.2c0-0.5,0-1,0-1.5c0-4.2,0-8.3,0-12.5c0-2.1,1.1-3.5,3-4.3c1.6-0.7,3.4-0.4,4.4,0.9
		c0.9,1.1,1.5,2.7,1.6,4c0.2,4.3,0.1,8.6,0.1,13c0,1.7,0.6,2.5,1.9,2.6c1.5,0.1,2.3-0.8,2.3-2.6c0-4.6,0-9.1,0.1-13.7
		c0-2.2,1.8-4.1,3.8-4.5c2-0.3,4.1,0.9,4.9,3c0.3,0.7,0.3,1.6,0.3,2.4c0,4.4,0,8.7,0,13.1c0,1.6,0.8,2.4,2.1,2.4
		c1.3,0,2.1-0.8,2.1-2.4c0-4.6,0.1-9.2,0-13.9c-0.2-5.5-4.3-9-9.6-8.7c-2.3,0.1-4.1,1.4-5.8,2.9C-356-147.3-359.7-147.8-363.7-145.8
		"/>
	<path id="Fill-3" class="st8" d="M-382.6-121.7c1.4,0,2.8,0,4.2,0c4.1-0.1,7.2-3.2,7.2-7.4c0-4.1-3.1-7.2-7.2-7.3
		c-1.5,0-2.9,0-4.4,0c-1.5-0.1-2.8-1.3-2.9-2.7c-0.2-1.6,0.7-3,2.3-3.4c0.6-0.2,1.3-0.2,1.9-0.2c2.5,0,4.9,0,7.4,0
		c1.4,0,2.2-0.8,2.2-1.9c0-1.2-0.7-2.1-2-2.1c-3.4,0-6.7-0.2-10.1,0.2c-3.8,0.4-6.3,3.9-5.9,7.9c0.3,3.5,3.4,6.4,7,6.4
		c1.3,0,2.6,0,3.9,0c2.2,0,3.6,1.3,3.7,3.2c0,2-1.4,3.3-3.7,3.3c-2.6,0-5.2,0-7.8,0c-1.4,0-2.3,0.8-2.3,2c0,1.2,0.9,2,2.3,2.1
		C-385.4-121.7-384-121.7-382.6-121.7"/>
	<path id="Fill-5" class="st8" d="M-474.2-167.8c1.2,0.1,2,0.3,2.9,0.8c-3.5,12.6-7.1,25.1-13.8,36.7c0.8,0.5,1.6,1.1,2.5,1.6
		c0.9,0.5,1.7,0.3,2.2-0.7c2.1-4.4,4.4-8.7,6.1-13.3c2.5-6.7,4.5-13.6,6.7-20.5c0.2-0.5,0.3-1,0.5-1.6c2.7,2.1,4.2,4.7,4.8,7.8
		c0.2,1,0.3,2.1,0.3,3.1c0,5.2,0,10.4,0,15.5v1.7c-4.9-2.1-8.3,0.1-11.5,3.2c-1.6,1.6-3.3,3.3-5.1,4.7c-2.1,1.7-3.9,1.8-6,0.1
		c-1.5-1.2-2.8-2.7-4.3-4c-1.3-1.1-2.5-2.4-3.9-3.3c-3.5-2.3-7-2.1-10.2,0.4c-1.7,1.4-3.3,3-4.9,4.5c-0.7,0.6-1.3,1.3-2,1.9
		c-2.7,2.3-4.7,2.3-7.4,0c-2-1.8-3.8-3.7-5.7-5.5v-21.1c0.1-0.4,0.3-0.9,0.4-1.3c0.6-2.5,1.6-4.7,3.6-6.6c3.1,10.7,6.4,21,11.1,31.1
		c0.9-0.9,1.7-1.7,2.5-2.3c0.9-0.7,0.9-1.3,0.5-2.3c-4.2-9.1-7.1-18.7-9.7-28.3c-0.2-0.9,0.1-1.1,0.8-1.5c0.9-0.5,2-0.7,3.2-0.8
		L-474.2-167.8L-474.2-167.8z"/>
	<path id="Fill-8" class="st8" d="M-485.8-122.5c-1.1-0.8-2.1-1.6-3.1-2.3c-0.3-0.2-0.9-0.2-1.3,0c-2.4,1.4-4.7,1.1-6.7-0.8
		c-1.4-1.3-2.6-2.7-3.9-4c-1,1-2,2.1-3.1,3.2c1.7,2.3,3.6,4.4,6.3,5.9C-493.7-118.4-489-119.2-485.8-122.5z M-522.8-128.3
		c1.5,1.3,2.8,2.7,4.4,3.9c3.5,2.5,6.9,2.4,10.3-0.2c1.9-1.4,3.5-3.2,5.2-4.8c0.3-0.3,0.6-0.6,0.9-1c3.3-3.3,5.4-3.4,8.8-0.1
		c1.5,1.5,2.9,3.1,4.5,4.4c1.6,1.3,3.5,2.4,5.4,3.1c2.7,0.9,5.2-0.2,7.3-1.9c1.9-1.6,3.7-3.5,5.6-5.2c0.8-0.8,1.7-1.6,2.7-2.2
		c1.7-1,3.9-0.6,5.2,0.8c0.2,0.2,0.4,0.5,0.4,0.8c0,4.1,0.3,8.3-0.2,12.3c-0.6,5.8-4.7,9.8-10.3,11.2c-0.3,0.1-39.6,0.1-39.9-0.1
		c-5.1-1.4-8.4-4.6-9.9-9.7c-0.2-0.6-0.3-1.1-0.5-1.7L-522.8-128.3L-522.8-128.3z"/>
	<path id="Fill-11" class="st8" d="M-288-127.7c-0.2,0.5-0.5,1.1-0.7,1.6c-1.3,2.7-3.5,4.2-6.5,4.3c-2.8,0.1-5.6,0-8.4,0
		c-1.5,0-2.4-0.8-2.4-2.1s0.8-2,2.3-2c2.6,0,5.2,0,7.8,0c2.2,0,3.7-1.3,3.7-3.1c0-1.9-1.5-3.2-3.7-3.3c-1.2,0-2.3,0-3.5,0
		c-4.2,0-7.3-3-7.5-7c-0.2-3.8,2.8-7.3,6.9-7.5c3-0.2,5.9-0.1,8.9,0c1.5,0,2.2,0.8,2.2,2.1c0,1.3-0.7,1.9-2.3,1.9
		c-2.4,0-4.7,0-7.1,0c-0.7,0-1.4,0.1-2.1,0.2c-1.5,0.4-2.5,1.8-2.3,3.3c0.2,1.5,1.4,2.8,3,2.9c1.3,0.1,2.6,0,3.9,0
		c3.8,0,6.3,1.8,7.5,5.5c0.1,0.2,0.2,0.3,0.3,0.5L-288-127.7L-288-127.7z"/>
	<path id="Fill-13" class="st8" d="M-432.5-126c4.4,0,7.9-3.7,7.9-8.2s-3.8-8.4-8.2-8.3c-4.2,0.1-7.7,3.9-7.7,8.4
		C-440.4-129.5-436.9-126-432.5-126 M-424.7-124.6c-6.2,4.5-13.4,2.7-16.9-1.4c-4-4.7-4.2-11.3-0.5-16.1c4.2-5.3,9.8-6,17.6-2
		c0-2.6,0-5.2,0-7.7c0-1.7,1.3-2.7,2.8-2.2c1.2,0.4,1.4,1.3,1.4,2.4c0,5.3,0,10.6,0,15.8c0,3.6,0,7.1,0,10.7c0,2.1-0.5,2.8-1.8,3
		C-423.6-121.8-424.2-122.5-424.7-124.6"/>
	<path id="Fill-15" class="st8" d="M-397.4-136.4c-0.3-3.1-3.8-6-7-6.1c-3.9-0.1-7.4,2.5-7.9,6.1H-397.4z M-412.5-132.5
		c0.3,4.1,4.6,7.2,8.7,6.6c2.2-0.4,4-1.5,5.4-3.3c1.1-1.4,2.4-1.7,3.5-0.8c1,0.8,0.9,2.1-0.1,3.5c-3.5,4.4-9,6-14.3,3.9
		c-4.8-1.8-8.1-7.1-7.8-12.3c0.4-5.7,4.2-10.4,9.6-11.6c7.4-1.7,14.9,4.1,15,11.4c0,1.9-0.6,2.5-2.5,2.6c-5.2,0-10.3,0-15.5,0
		L-412.5-132.5L-412.5-132.5z"/>
	<path id="Fill-17" class="st8" d="M-321.9-142.5c-4.4,0-8.1,3.9-8,8.4c0.1,4.5,3.6,8.3,8,8.2c4.4,0,8-3.7,8-8.2
		C-313.9-138.7-317.5-142.5-321.9-142.5 M-334.2-134.3c0-7,5.6-12.6,12.3-12.5c6.9,0.1,12.3,5.7,12.3,12.7
		c-0.1,6.9-5.5,12.5-12.3,12.4C-328.8-121.7-334.2-127.3-334.2-134.3"/>
</g>
</svg>
