<?xml version="1.0" encoding="utf-8"?>
<!-- Generator: Adobe Illustrator 25.3.1, SVG Export Plug-In . SVG Version: 6.00 Build 0)  -->
<svg version="1.1" id="Layer_1" xmlns="http://www.w3.org/2000/svg" xmlns:xlink="http://www.w3.org/1999/xlink" x="0px" y="0px"
	 viewBox="0 0 235 115" style="enable-background:new 0 0 235 115;" xml:space="preserve">
<style type="text/css">
	.st0{fill:#FFEFD2;}
	.st1{fill:#2F302F;}
	.st2{fill:#33A544;}
	.st3{fill:#6ACEF5;}
	.st4{fill:#FEE105;}
	.st5{fill:#F2E916;}
	.st6{fill:#292E76;}
	.st7{fill:#F6901D;}
	.st8{fill-rule:evenodd;clip-rule:evenodd;fill:#0B7B3B;}
	.st9{fill-rule:evenodd;clip-rule:evenodd;fill:#EDD912;}
	.st10{fill-rule:evenodd;clip-rule:evenodd;fill:#9C59B5;}
	.st11{fill-rule:evenodd;clip-rule:evenodd;fill:#EB66AB;}
	.st12{fill-rule:evenodd;clip-rule:evenodd;fill:#FFA31C;}
	.st13{fill-rule:evenodd;clip-rule:evenodd;fill:#2BC2FF;}
	.st14{fill-rule:evenodd;clip-rule:evenodd;fill:#33CC99;}
	.st15{fill:#454545;}
	.st16{fill:#8DAE05;}
	.st17{fill:#009EBE;}
	.st18{fill:#00C4C9;}
	.st19{fill:#4376CD;}
	.st20{fill:#FFFFFF;}
	.st21{fill:#99CC00;}
	.st22{fill:#0A0B1D;}
	.st23{clip-path:url(#SVGID_2_);}
	.st24{fill:#DFF6E8;}
	.st25{fill:#A2E5BE;}
	.st26{fill:none;stroke:#90D6AC;stroke-width:1.9681;stroke-linecap:round;stroke-linejoin:round;stroke-miterlimit:10;}
	.st27{fill:none;stroke:#A2E5BE;stroke-width:2.6236;stroke-linecap:round;stroke-linejoin:round;stroke-miterlimit:10;}
	.st28{clip-path:url(#SVGID_2_);fill:none;stroke:#365BB8;stroke-width:12.1227;stroke-miterlimit:10;}
	.st29{clip-path:url(#SVGID_2_);fill:#79BBF7;}
	.st30{clip-path:url(#SVGID_2_);fill:#99CFFF;}
	.st31{fill:#79BBF7;}
	.st32{fill:#99CFFF;}
	.st33{fill:#4A7AF6;}
	.st34{fill:#D16181;}
	.st35{fill:#D7E0FF;}
	.st36{fill:#08A6FD;}
	.st37{fill:#90D6AC;}
	.st38{fill:#243D7C;}
	.st39{clip-path:url(#SVGID_2_);fill:#4A7AF6;}
	.st40{fill:none;stroke:#365BB8;stroke-width:18.6503;stroke-miterlimit:10;}
	.st41{fill:#BDD8FF;}
	.st42{clip-path:url(#SVGID_2_);fill:none;stroke:#365BB8;stroke-width:11.6489;stroke-miterlimit:10;}
	.st43{fill:#BE546D;}
	.st44{fill:#EDB39A;}
	.st45{fill:#F6C464;}
	.st46{fill:#AECDFF;}
	.st47{fill:#AF4664;}
	.st48{clip-path:url(#SVGID_2_);fill:#243D7C;}
	.st49{clip-path:url(#SVGID_2_);fill:none;}
	.st50{clip-path:url(#SVGID_4_);}
	.st51{fill:#00A8FF;}
	.st52{fill:#D6E3FC;}
	.st53{fill:#82DAD9;}
	.st54{fill:#E480D0;}
	.st55{fill:#FFDDD4;}
	.st56{fill:#FFD9D9;}
	.st57{fill:#FFF2E9;}
	.st58{fill:#C8FCF9;}
	.st59{fill:#FFBE00;}
	.st60{fill:#68D493;}
	.st61{fill:#00A7FF;}
	.st62{fill:#47A7F8;}
	.st63{fill:#365BB8;}
	.st64{clip-path:url(#SVGID_6_);}
	.st65{fill:#F9FAFB;}
	.st66{clip-path:url(#SVGID_8_);}
	.st67{clip-path:url(#SVGID_10_);}
	.st68{clip-path:url(#SVGID_12_);}
	.st69{fill:none;stroke:#FFFFFF;stroke-width:0.7631;stroke-linecap:round;stroke-linejoin:round;stroke-miterlimit:10;}
	.st70{opacity:0.79;fill:#68D493;}
	.st71{fill:none;stroke:#FFFFFF;stroke-width:2.0657;stroke-linecap:round;stroke-linejoin:round;stroke-miterlimit:10;}
	.st72{fill:none;stroke:#365BB8;stroke-width:1.4392;stroke-linecap:round;stroke-linejoin:round;stroke-miterlimit:10;}
	.st73{clip-path:url(#SVGID_14_);}
	.st74{fill:none;stroke:#4A7AF6;stroke-width:0.3309;stroke-linecap:round;stroke-linejoin:round;stroke-miterlimit:10;}
	.st75{clip-path:url(#SVGID_16_);}
	.st76{clip-path:url(#SVGID_18_);}
	.st77{clip-path:url(#SVGID_16_);fill:#FFFFFF;}
	.st78{clip-path:url(#SVGID_16_);fill:#00A8FF;}
	.st79{fill:#FFE5BB;}
	.st80{fill:none;stroke:#FFE5BB;stroke-width:1.3957;stroke-linecap:round;stroke-miterlimit:10;}
	.st81{fill:#EA4E4E;}
	.st82{fill:#B9924C;}
	.st83{fill:#F7C800;}
	.st84{clip-path:url(#SVGID_20_);}
	.st85{clip-path:url(#SVGID_2_);fill:#365BB8;}
	.st86{clip-path:url(#SVGID_2_);fill:none;stroke:#365BB8;stroke-width:18.6503;stroke-miterlimit:10;}
	.st87{clip-path:url(#SVGID_2_);fill:#D1D1D1;}
	.st88{fill:#EAEAEA;}
	.st89{fill:#E2E2E2;}
	.st90{fill:none;stroke:#000000;stroke-width:0.5136;stroke-miterlimit:10;}
	.st91{fill:#565656;}
	.st92{fill:#727272;}
	.st93{fill:#9B9B9B;}
	.st94{fill:#BABABA;}
	.st95{fill:#D1D1D1;}
	.st96{fill:#F4F4F4;}
	.st97{fill:#E28156;}
	.st98{fill:#63A4A2;}
	.st99{fill:#A96140;}
	.st100{fill:#B53535;}
	.st101{fill:#426E6D;}
	.st102{fill:#7C6332;}
	.st103{fill:#72412C;}
	.st104{fill:#565CC0;}
	.st105{fill:#3E4693;}
	.st106{fill:#2D3572;}
	.st107{fill:#7C2121;}
	.st108{fill:#8E3F52;}
	.st109{fill:#5F2B37;}
	.st110{fill:#70C3FA;}
	.st111{fill:#0D293E;}
	.st112{fill:#1F537C;}
	.st113{fill:#327DB9;}
	.st114{fill:#01A8FF;}
	.st115{fill:#C4E8FD;}
	.st116{fill:#E6F6FE;}
	.st117{fill:#CE904D;}
	.st118{fill:#161413;}
	.st119{fill:#443833;}
	.st120{fill:#4F4947;}
	.st121{fill:#F4B76E;}
	.st122{fill:#F5C0B7;}
	.st123{fill:#C07666;}
	.st124{fill:#D99480;}
	.st125{fill:#F3B39F;}
	.st126{fill:#F7D5D4;}
	.st127{fill:#BB7C5E;}
	.st128{fill:#834A41;}
	.st129{fill:#965B4B;}
	.st130{fill:#AA6D55;}
	.st131{fill:#C28A68;}
	.st132{fill:#D85D45;}
	.st133{fill:#FF9F9F;}
	.st134{fill:#E2A1B2;}
	.st135{fill:#F1DCE1;}
	.st136{fill:#819EF2;}
	.st137{fill:#B3CEFF;}
	.st138{fill:#F28C8C;}
	.st139{fill:#CE8699;}
	.st140{fill:#6F7FDD;}
	.st141{fill:#4E9F6F;}
	.st142{fill:#346B4A;}
	.st143{fill:#F7D4A1;}
	.st144{fill:#FCE4D6;}
	.st145{fill:#F9CFC5;}
	.st146{fill:#A0EADD;}
	.st147{fill:#85D3CC;}
	.st148{fill:#C0E7FF;}
	.st149{fill:none;stroke:#FFE5BB;stroke-width:4;stroke-linecap:round;stroke-linejoin:round;stroke-miterlimit:10;}
	.st150{fill:none;stroke:#FFE5BB;stroke-width:4;stroke-linecap:round;stroke-linejoin:round;}
	.st151{clip-path:url(#SVGID_24_);}
	.st152{fill:none;stroke:#FFE5BB;stroke-width:3;stroke-linecap:round;stroke-linejoin:round;}
	.st153{fill:#FBC04F;}
	.st154{fill:#FAD097;}
	.st155{fill:#10274F;}
	.st156{opacity:0.3;fill:#10274F;}
	.st157{fill-rule:evenodd;clip-rule:evenodd;fill:#9277C5;}
	.st158{fill-rule:evenodd;clip-rule:evenodd;fill:#771E8D;}
	.st159{filter:url(#Adobe_OpacityMaskFilter);}
	.st160{clip-path:url(#SVGID_29_);}
	.st161{enable-background:new    ;}
	.st162{clip-path:url(#SVGID_31_);}
	.st163{clip-path:url(#SVGID_33_);}
	.st164{clip-path:url(#SVGID_35_);}
	.st165{clip-path:url(#SVGID_35_);fill-rule:evenodd;clip-rule:evenodd;fill:#FFFFFF;}
	.st166{mask:url(#SVGID_27_);}
	.st167{clip-path:url(#SVGID_37_);}
	.st168{clip-path:url(#SVGID_39_);fill-rule:evenodd;clip-rule:evenodd;fill:#FFFFFF;}
	.st169{fill-rule:evenodd;clip-rule:evenodd;fill:#80699B;}
	.st170{fill:#4CA3A0;}
	.st171{fill:#86EADA;}
	.st172{fill:#E0F3FF;}
</style>
<g>
	<g>
		<path class="st3" d="M41.6,35.3H18c-0.8,0-1.5,0.7-1.5,1.5V96c0,0.8,0.6,1.5,1.5,1.5h13.1c0.8,0,1.5-0.6,1.5-1.5V80.5
			c0-0.8,0.6-1.5,1.5-1.5h7.6c15.1,0,23.7-8,23.7-21.9C65.4,43.4,56.7,35.3,41.6,35.3 M40.1,65.8H34c-0.8,0-1.5-0.7-1.5-1.5V49.8
			c0-0.8,0.6-1.5,1.5-1.5h6.2c7.1,0,9.3,4.8,9.3,8.8C49.5,61.2,47.2,65.8,40.1,65.8"/>
		<path class="st3" d="M217,35.3h-90.8c-0.8,0-1.5,0.7-1.5,1.5V96c0,0.8,0.7,1.5,1.5,1.5h40.3c0.8,0,1.5-0.6,1.5-1.5V85.8
			c0-0.8-0.6-1.5-1.5-1.5h-25.1c-0.4,0-0.7-0.3-0.7-0.7v-9.9c0-0.4,0.3-0.7,0.7-0.7h21.4c0.8,0,1.5-0.6,1.5-1.5V61.3
			c0-0.8-0.6-1.5-1.5-1.5h-21.4c-0.4,0-0.7-0.3-0.7-0.7v-9.9c0-0.4,0.3-0.7,0.7-0.7l42.2,0.1c0.4,0,0.7,0.3,0.7,0.7V96
			c0,0.8,0.6,1.5,1.5,1.5H199c0.8,0,1.5-0.6,1.5-1.5V49.1c0-0.4,0.3-0.7,0.7-0.7H217c0.8,0,1.5-0.7,1.5-1.5V36.8
			C218.4,36,217.8,35.3,217,35.3"/>
		<path class="st4" d="M105.3,52.1c-0.6,1.9-1.2,3.7-1.6,5.6c-0.1,0.4-0.2,0.8-0.3,1.2c-4.8,20.5-2.2,34-1.3,38.4
			c0.2,0.1,0.4,0.2,0.6,0.2h12.1c0.8,0,1.5-0.6,1.5-1.5V70.1C116.2,61.5,112.3,55,105.3,52.1"/>
		<path class="st4" d="M87.7,50.9V34.8c0-0.8-0.7-1.5-1.5-1.5H73.2c-0.8,0-1.5,0.7-1.5,1.5V96c0,0.8,0.7,1.5,1.5,1.5h8.2
			c0.4,0,0.7-0.2,1-0.4c2.3-18.5,9.2-34.7,16.1-46.6c-0.9-0.1-1.9-0.2-2.9-0.2C93.1,50.3,90,50.5,87.7,50.9"/>
		<polygon class="st4" points="95.2,29.5 104.4,32.8 116.1,23 107.1,33.7 116.9,37.2 120.4,17.5 		"/>
		<polygon class="st5" points="108,39.2 107.6,34.8 111,36 		"/>
	</g>
	<g>
		<path class="st3" d="M208.6,90.2c0.5,0.2,0.8,0.5,1.2,0.8c0.3,0.4,0.6,0.7,0.8,1.2c0.2,0.5,0.3,1,0.3,1.5c0,0.5-0.1,1-0.3,1.5
			c-0.2,0.5-0.5,0.8-0.8,1.2c-0.3,0.3-0.7,0.6-1.2,0.8c-0.5,0.2-1,0.3-1.5,0.3c-0.5,0-1-0.1-1.5-0.3c-0.5-0.2-0.8-0.5-1.2-0.8
			c-0.3-0.3-0.6-0.7-0.8-1.2c-0.2-0.5-0.3-1-0.3-1.5c0-0.5,0.1-1,0.3-1.5c0.2-0.5,0.5-0.8,0.8-1.2c0.3-0.3,0.7-0.6,1.2-0.8
			c0.5-0.2,1-0.3,1.5-0.3C207.7,89.9,208.2,90,208.6,90.2z M205.9,90.7c-0.4,0.2-0.7,0.4-1,0.7c-0.3,0.3-0.5,0.6-0.7,1
			c-0.2,0.4-0.2,0.8-0.2,1.3s0.1,0.9,0.2,1.3c0.2,0.4,0.4,0.7,0.7,1c0.3,0.3,0.6,0.5,1,0.7c0.4,0.2,0.8,0.3,1.3,0.3s0.8-0.1,1.3-0.3
			c0.4-0.2,0.7-0.4,1-0.7s0.5-0.6,0.7-1c0.2-0.4,0.3-0.8,0.3-1.3s-0.1-0.9-0.3-1.3c-0.2-0.4-0.4-0.7-0.7-1c-0.3-0.3-0.6-0.5-1-0.7
			c-0.4-0.2-0.8-0.3-1.3-0.3S206.2,90.5,205.9,90.7z M205.8,95.9v-4.4h1.7c0.5,0,0.8,0.1,1.1,0.3s0.3,0.5,0.3,0.9
			c0,0.2-0.1,0.4-0.1,0.5c-0.1,0.2-0.2,0.3-0.3,0.4c-0.1,0.1-0.2,0.2-0.4,0.2c-0.1,0.1-0.3,0.1-0.4,0.1l1.3,2h-0.6l-1.2-2h-0.9v2
			L205.8,95.9L205.8,95.9z M207.5,93.4c0.2,0,0.3-0.1,0.4-0.1c0.1-0.1,0.2-0.1,0.3-0.2c0.1-0.1,0.1-0.3,0.1-0.4
			c0-0.2-0.1-0.3-0.1-0.4s-0.2-0.2-0.2-0.2c-0.1-0.1-0.2-0.1-0.3-0.1s-0.3-0.1-0.4-0.1h-1v1.5h0.7C207.2,93.5,207.3,93.4,207.5,93.4
			z"/>
	</g>
</g>
</svg>
