<svg xmlns="http://www.w3.org/2000/svg" width="230.911" height="8.711" viewBox="0 0 230.911 8.711">
  <g id="Group_6644" data-name="Group 6644" transform="translate(-0.503 -0.034)">
    <g id="Capa_9" data-name="Capa 9" transform="translate(0.503 0.034)">
      <g id="Group_6641" data-name="Group 6641">
        <path id="Path_8731" data-name="Path 8731" d="M.632,2.89A2.611,2.611,0,0,0,2.851,4.543,7.955,7.955,0,0,1,7.141,6.449a9.739,9.739,0,0,0,6.415,2.3,9.887,9.887,0,0,0,6.415-2.3,7.868,7.868,0,0,1,5.335-1.958,7.8,7.8,0,0,1,5.335,1.958,9.739,9.739,0,0,0,6.415,2.3,9.887,9.887,0,0,0,6.415-2.3A8.022,8.022,0,0,1,47.9,4.53a2.309,2.309,0,0,0,1.773-1.1,2.158,2.158,0,0,0,.089-2.36A2.09,2.09,0,0,0,47.782.078,10.066,10.066,0,0,0,42.391,2.33a7.858,7.858,0,0,1-5.335,1.925A7.957,7.957,0,0,1,31.721,2.33a9.739,9.739,0,0,0-6.415-2.3,9.887,9.887,0,0,0-6.415,2.3,7.925,7.925,0,0,1-5.335,1.925A7.957,7.957,0,0,1,8.221,2.33,9.846,9.846,0,0,0,2.831.077,2.113,2.113,0,0,0,.888.995,2.029,2.029,0,0,0,.632,2.89Z" transform="translate(-0.503 -0.034)" fill="#62dad7"/>
      </g>
    </g>
    <g id="Capa_9-2" data-name="Capa 9" transform="translate(46.15 0.034)">
      <g id="Group_6642" data-name="Group 6642">
        <path id="Path_8732" data-name="Path 8732" d="M135.826,2.89a2.611,2.611,0,0,0,2.219,1.652,7.953,7.953,0,0,1,4.289,1.906,9.739,9.739,0,0,0,6.415,2.3,9.887,9.887,0,0,0,6.415-2.3,8.246,8.246,0,0,1,10.67,0,9.739,9.739,0,0,0,6.415,2.3,9.887,9.887,0,0,0,6.415-2.3,8.023,8.023,0,0,1,4.428-1.92,2.309,2.309,0,0,0,1.773-1.1,2.158,2.158,0,0,0,.089-2.36,2.09,2.09,0,0,0-1.979-.989,10.067,10.067,0,0,0-5.392,2.252,7.858,7.858,0,0,1-5.335,1.925,7.957,7.957,0,0,1-5.335-1.925A9.739,9.739,0,0,0,160.5.034a9.887,9.887,0,0,0-6.415,2.3,7.925,7.925,0,0,1-5.335,1.925,7.957,7.957,0,0,1-5.335-1.925,9.845,9.845,0,0,0-5.39-2.253,2.113,2.113,0,0,0-1.944.918A2.029,2.029,0,0,0,135.826,2.89Z" transform="translate(-135.697 -0.034)" fill="#62dad7"/>
      </g>
    </g>
    <g id="Capa_9-3" data-name="Capa 9" transform="translate(91.729 0.034)">
      <g id="Group_6643" data-name="Group 6643">
        <path id="Path_8733" data-name="Path 8733" d="M270.816,2.89a2.61,2.61,0,0,0,2.219,1.652,7.955,7.955,0,0,1,4.289,1.906,9.739,9.739,0,0,0,6.415,2.3,9.887,9.887,0,0,0,6.415-2.3,8.245,8.245,0,0,1,10.67,0,9.739,9.739,0,0,0,6.415,2.3,9.887,9.887,0,0,0,6.415-2.3,8.022,8.022,0,0,1,4.428-1.92,2.308,2.308,0,0,0,1.773-1.1,2.159,2.159,0,0,0,.089-2.36,2.09,2.09,0,0,0-1.979-.989,10.066,10.066,0,0,0-5.392,2.252,7.858,7.858,0,0,1-5.335,1.925,7.957,7.957,0,0,1-5.335-1.925,9.739,9.739,0,0,0-6.415-2.3,9.887,9.887,0,0,0-6.415,2.3,7.925,7.925,0,0,1-5.335,1.925,7.957,7.957,0,0,1-5.335-1.925,9.846,9.846,0,0,0-5.39-2.253,2.112,2.112,0,0,0-1.944.918A2.028,2.028,0,0,0,270.816,2.89Z" transform="translate(-270.687 -0.034)" fill="#62dad7"/>
      </g>
    </g>
    <g id="Capa_9-4" data-name="Capa 9" transform="translate(136.905 0.034)">
      <g id="Group_6643-2" data-name="Group 6643">
        <path id="Path_8733-2" data-name="Path 8733" d="M270.816,2.89a2.61,2.61,0,0,0,2.219,1.652,7.955,7.955,0,0,1,4.289,1.906,9.739,9.739,0,0,0,6.415,2.3,9.887,9.887,0,0,0,6.415-2.3,8.245,8.245,0,0,1,10.67,0,9.739,9.739,0,0,0,6.415,2.3,9.887,9.887,0,0,0,6.415-2.3,8.022,8.022,0,0,1,4.428-1.92,2.308,2.308,0,0,0,1.773-1.1,2.159,2.159,0,0,0,.089-2.36,2.09,2.09,0,0,0-1.979-.989,10.066,10.066,0,0,0-5.392,2.252,7.858,7.858,0,0,1-5.335,1.925,7.957,7.957,0,0,1-5.335-1.925,9.739,9.739,0,0,0-6.415-2.3,9.887,9.887,0,0,0-6.415,2.3,7.925,7.925,0,0,1-5.335,1.925,7.957,7.957,0,0,1-5.335-1.925,9.846,9.846,0,0,0-5.39-2.253,2.112,2.112,0,0,0-1.944.918A2.028,2.028,0,0,0,270.816,2.89Z" transform="translate(-270.687 -0.034)" fill="#62dad7"/>
      </g>
    </g>
    <g id="Capa_9-5" data-name="Capa 9" transform="translate(181.846 0.034)">
      <g id="Group_6643-3" data-name="Group 6643">
        <path id="Path_8733-3" data-name="Path 8733" d="M270.816,2.89a2.61,2.61,0,0,0,2.219,1.652,7.955,7.955,0,0,1,4.289,1.906,9.739,9.739,0,0,0,6.415,2.3,9.887,9.887,0,0,0,6.415-2.3,8.245,8.245,0,0,1,10.67,0,9.739,9.739,0,0,0,6.415,2.3,9.887,9.887,0,0,0,6.415-2.3,8.022,8.022,0,0,1,4.428-1.92,2.308,2.308,0,0,0,1.773-1.1,2.159,2.159,0,0,0,.089-2.36,2.09,2.09,0,0,0-1.979-.989,10.066,10.066,0,0,0-5.392,2.252,7.858,7.858,0,0,1-5.335,1.925,7.957,7.957,0,0,1-5.335-1.925,9.739,9.739,0,0,0-6.415-2.3,9.887,9.887,0,0,0-6.415,2.3,7.925,7.925,0,0,1-5.335,1.925,7.957,7.957,0,0,1-5.335-1.925,9.846,9.846,0,0,0-5.39-2.253,2.112,2.112,0,0,0-1.944.918A2.028,2.028,0,0,0,270.816,2.89Z" transform="translate(-270.687 -0.034)" fill="#62dad7"/>
      </g>
    </g>
  </g>
</svg>
