<svg xmlns="http://www.w3.org/2000/svg" width="168.427" height="10.421" viewBox="0 0 168.427 10.421">
  <g id="Group_6647" data-name="Group 6647" transform="translate(-0.503 -0.034)">
    <g id="Capa_9" data-name="Capa 9" transform="translate(0.503 0.034)">
      <g id="Group_6641" data-name="Group 6641">
        <path id="Path_8731" data-name="Path 8731" d="M.657,3.451A3.124,3.124,0,0,0,3.312,5.428a9.517,9.517,0,0,1,5.131,2.28,11.65,11.65,0,0,0,7.674,2.747,11.828,11.828,0,0,0,7.674-2.747,9.412,9.412,0,0,1,6.382-2.343,9.333,9.333,0,0,1,6.382,2.343,11.65,11.65,0,0,0,7.674,2.747A11.828,11.828,0,0,0,51.9,7.708a9.6,9.6,0,0,1,5.3-2.3,2.762,2.762,0,0,0,2.121-1.32,2.582,2.582,0,0,0,.107-2.823A2.5,2.5,0,0,0,57.062.087a12.042,12.042,0,0,0-6.45,2.694,9.4,9.4,0,0,1-6.382,2.3,9.519,9.519,0,0,1-6.382-2.3A11.65,11.65,0,0,0,30.174.034,11.828,11.828,0,0,0,22.5,2.781a9.48,9.48,0,0,1-6.382,2.3,9.519,9.519,0,0,1-6.382-2.3A11.778,11.778,0,0,0,3.288.086a2.527,2.527,0,0,0-2.325,1.1A2.427,2.427,0,0,0,.657,3.451Z" transform="translate(-0.503 -0.034)" fill="#62dad7"/>
      </g>
    </g>
    <g id="Capa_9-2" data-name="Capa 9" transform="translate(55.109 0.034)">
      <g id="Group_6642" data-name="Group 6642">
        <path id="Path_8732" data-name="Path 8732" d="M135.851,3.451a3.124,3.124,0,0,0,2.655,1.977,9.514,9.514,0,0,1,5.131,2.28,11.65,11.65,0,0,0,7.674,2.747,11.828,11.828,0,0,0,7.674-2.747,9.864,9.864,0,0,1,12.764,0,11.65,11.65,0,0,0,7.674,2.747A11.828,11.828,0,0,0,187.1,7.708a9.6,9.6,0,0,1,5.3-2.3,2.762,2.762,0,0,0,2.121-1.32,2.582,2.582,0,0,0,.106-2.823A2.5,2.5,0,0,0,192.255.087a12.043,12.043,0,0,0-6.45,2.694,9.4,9.4,0,0,1-6.382,2.3,9.519,9.519,0,0,1-6.382-2.3A11.65,11.65,0,0,0,165.367.034a11.828,11.828,0,0,0-7.674,2.747,9.48,9.48,0,0,1-6.382,2.3,9.519,9.519,0,0,1-6.382-2.3A11.777,11.777,0,0,0,138.482.086a2.527,2.527,0,0,0-2.325,1.1A2.427,2.427,0,0,0,135.851,3.451Z" transform="translate(-135.697 -0.034)" fill="#62dad7"/>
      </g>
    </g>
    <g id="Capa_9-3" data-name="Capa 9" transform="translate(109.634 0.034)">
      <g id="Group_6643" data-name="Group 6643">
        <path id="Path_8733" data-name="Path 8733" d="M270.842,3.451A3.123,3.123,0,0,0,273.5,5.428a9.517,9.517,0,0,1,5.131,2.28,11.65,11.65,0,0,0,7.674,2.747,11.828,11.828,0,0,0,7.674-2.747,9.864,9.864,0,0,1,12.764,0,11.65,11.65,0,0,0,7.674,2.747,11.828,11.828,0,0,0,7.674-2.747,9.6,9.6,0,0,1,5.3-2.3,2.761,2.761,0,0,0,2.121-1.32,2.582,2.582,0,0,0,.107-2.823A2.5,2.5,0,0,0,327.246.087a12.042,12.042,0,0,0-6.45,2.694,9.4,9.4,0,0,1-6.382,2.3,9.519,9.519,0,0,1-6.382-2.3A11.65,11.65,0,0,0,300.358.034a11.828,11.828,0,0,0-7.674,2.747,9.48,9.48,0,0,1-6.382,2.3,9.519,9.519,0,0,1-6.382-2.3A11.778,11.778,0,0,0,273.473.086a2.527,2.527,0,0,0-2.325,1.1A2.426,2.426,0,0,0,270.842,3.451Z" transform="translate(-270.687 -0.034)" fill="#62dad7"/>
      </g>
    </g>
  </g>
</svg>
