<svg xmlns="http://www.w3.org/2000/svg" width="168.375" height="10.418" viewBox="0 0 168.375 10.418">
  <g id="Group_6660" data-name="Group 6660" transform="translate(-0.503 -0.034)">
    <g id="Capa_9" data-name="Capa 9" transform="translate(0.503 0.034)">
      <g id="Group_6641" data-name="Group 6641">
        <path id="Path_8731" data-name="Path 8731" d="M.657,3.45A3.123,3.123,0,0,0,3.311,5.426a9.514,9.514,0,0,1,5.13,2.28,11.647,11.647,0,0,0,7.672,2.746,11.824,11.824,0,0,0,7.672-2.746,9.409,9.409,0,0,1,6.38-2.342,9.33,9.33,0,0,1,6.38,2.342,11.647,11.647,0,0,0,7.672,2.746,11.824,11.824,0,0,0,7.672-2.746,9.593,9.593,0,0,1,5.3-2.3A2.761,2.761,0,0,0,59.3,4.091a2.581,2.581,0,0,0,.107-2.822A2.5,2.5,0,0,0,57.044.086,12.038,12.038,0,0,0,50.6,2.78a9.4,9.4,0,0,1-6.38,2.3,9.516,9.516,0,0,1-6.38-2.3A11.647,11.647,0,0,0,30.165.034,11.824,11.824,0,0,0,22.493,2.78a9.477,9.477,0,0,1-6.38,2.3,9.516,9.516,0,0,1-6.38-2.3A11.774,11.774,0,0,0,3.288.086a2.526,2.526,0,0,0-2.325,1.1A2.426,2.426,0,0,0,.657,3.45Z" transform="translate(-0.503 -0.034)" fill="#fbd096"/>
      </g>
    </g>
    <g id="Capa_9-2" data-name="Capa 9" transform="translate(55.092 0.034)">
      <g id="Group_6642" data-name="Group 6642">
        <path id="Path_8732" data-name="Path 8732" d="M135.851,3.45a3.123,3.123,0,0,0,2.654,1.976,9.511,9.511,0,0,1,5.129,2.28,11.647,11.647,0,0,0,7.672,2.746,11.824,11.824,0,0,0,7.672-2.746,9.861,9.861,0,0,1,12.76,0,11.646,11.646,0,0,0,7.672,2.746,11.824,11.824,0,0,0,7.672-2.746,9.6,9.6,0,0,1,5.3-2.3,2.762,2.762,0,0,0,2.12-1.319,2.581,2.581,0,0,0,.106-2.822A2.5,2.5,0,0,0,192.237.086,12.039,12.039,0,0,0,185.79,2.78a9.4,9.4,0,0,1-6.38,2.3,9.516,9.516,0,0,1-6.38-2.3A11.647,11.647,0,0,0,165.358.034a11.824,11.824,0,0,0-7.672,2.746,9.477,9.477,0,0,1-6.38,2.3,9.516,9.516,0,0,1-6.38-2.3A11.773,11.773,0,0,0,138.481.086a2.526,2.526,0,0,0-2.325,1.1A2.426,2.426,0,0,0,135.851,3.45Z" transform="translate(-135.697 -0.034)" fill="#fbd096"/>
      </g>
    </g>
    <g id="Capa_9-3" data-name="Capa 9" transform="translate(109.6 0.034)">
      <g id="Group_6643" data-name="Group 6643">
        <path id="Path_8733" data-name="Path 8733" d="M270.842,3.45A3.122,3.122,0,0,0,273.5,5.426a9.514,9.514,0,0,1,5.13,2.28,11.646,11.646,0,0,0,7.672,2.746,11.824,11.824,0,0,0,7.672-2.746,9.861,9.861,0,0,1,12.76,0,11.647,11.647,0,0,0,7.672,2.746,11.824,11.824,0,0,0,7.672-2.746,9.593,9.593,0,0,1,5.3-2.3,2.76,2.76,0,0,0,2.12-1.319,2.581,2.581,0,0,0,.107-2.822A2.5,2.5,0,0,0,327.228.086a12.038,12.038,0,0,0-6.448,2.693,9.4,9.4,0,0,1-6.38,2.3,9.516,9.516,0,0,1-6.38-2.3A11.647,11.647,0,0,0,300.349.034a11.824,11.824,0,0,0-7.672,2.746,9.477,9.477,0,0,1-6.38,2.3,9.516,9.516,0,0,1-6.38-2.3A11.774,11.774,0,0,0,273.472.086a2.526,2.526,0,0,0-2.325,1.1A2.425,2.425,0,0,0,270.842,3.45Z" transform="translate(-270.687 -0.034)" fill="#fbd096"/>
      </g>
    </g>
  </g>
</svg>
