<svg xmlns="http://www.w3.org/2000/svg" width="228.355" height="10.644" viewBox="0 0 228.355 10.644">
  <g id="Group_6646" data-name="Group 6646" transform="translate(-0.503 -0.034)">
    <g id="Capa_9" data-name="Capa 9" transform="translate(0.503 0.034)">
      <g id="Group_6641" data-name="Group 6641">
        <path id="Path_8731" data-name="Path 8731" d="M.661,3.524A3.191,3.191,0,0,0,3.372,5.543,9.721,9.721,0,0,1,8.614,7.873a11.9,11.9,0,0,0,7.839,2.805,12.081,12.081,0,0,0,7.839-2.805A9.614,9.614,0,0,1,30.81,5.48a9.533,9.533,0,0,1,6.519,2.393,11.9,11.9,0,0,0,7.839,2.805,12.081,12.081,0,0,0,7.839-2.805,9.8,9.8,0,0,1,5.41-2.345,2.821,2.821,0,0,0,2.166-1.348A2.637,2.637,0,0,0,60.692,1.3,2.554,2.554,0,0,0,58.273.088a12.3,12.3,0,0,0-6.588,2.752,9.6,9.6,0,0,1-6.519,2.352,9.723,9.723,0,0,1-6.519-2.352A11.9,11.9,0,0,0,30.81.034a12.081,12.081,0,0,0-7.839,2.805,9.684,9.684,0,0,1-6.519,2.352A9.723,9.723,0,0,1,9.934,2.839,12.031,12.031,0,0,0,3.348.087,2.581,2.581,0,0,0,.973,1.208,2.479,2.479,0,0,0,.661,3.524Z" transform="translate(-0.503 -0.034)" fill="#00a8ff"/>
      </g>
    </g>
    <g id="Capa_9-2" data-name="Capa 9" transform="translate(56.279 0.034)">
      <g id="Group_6642" data-name="Group 6642">
        <path id="Path_8732" data-name="Path 8732" d="M135.854,3.524a3.191,3.191,0,0,0,2.712,2.019,9.718,9.718,0,0,1,5.241,2.329,11.9,11.9,0,0,0,7.839,2.805,12.081,12.081,0,0,0,7.839-2.805,10.075,10.075,0,0,1,13.037,0,11.9,11.9,0,0,0,7.839,2.805A12.081,12.081,0,0,0,188.2,7.873a9.8,9.8,0,0,1,5.411-2.345,2.822,2.822,0,0,0,2.166-1.348,2.637,2.637,0,0,0,.109-2.884A2.554,2.554,0,0,0,193.467.088a12.3,12.3,0,0,0-6.588,2.752,9.6,9.6,0,0,1-6.519,2.352,9.723,9.723,0,0,1-6.519-2.352A11.9,11.9,0,0,0,166,.034a12.081,12.081,0,0,0-7.839,2.805,9.684,9.684,0,0,1-6.519,2.352,9.723,9.723,0,0,1-6.519-2.352A12.029,12.029,0,0,0,138.541.087a2.581,2.581,0,0,0-2.375,1.121A2.479,2.479,0,0,0,135.854,3.524Z" transform="translate(-135.697 -0.034)" fill="#00a8ff"/>
      </g>
    </g>
    <g id="Capa_9-3" data-name="Capa 9" transform="translate(111.972 0.034)">
      <g id="Group_6643" data-name="Group 6643">
        <path id="Path_8733" data-name="Path 8733" d="M270.845,3.524a3.19,3.19,0,0,0,2.711,2.019A9.721,9.721,0,0,1,278.8,7.873a11.9,11.9,0,0,0,7.839,2.805,12.081,12.081,0,0,0,7.839-2.805,10.075,10.075,0,0,1,13.037,0,11.9,11.9,0,0,0,7.839,2.805,12.081,12.081,0,0,0,7.839-2.805,9.8,9.8,0,0,1,5.41-2.345,2.821,2.821,0,0,0,2.166-1.348,2.637,2.637,0,0,0,.109-2.884A2.553,2.553,0,0,0,328.458.088a12.3,12.3,0,0,0-6.588,2.752,9.6,9.6,0,0,1-6.518,2.352,9.723,9.723,0,0,1-6.519-2.352A11.9,11.9,0,0,0,300.994.034a12.081,12.081,0,0,0-7.839,2.805,9.683,9.683,0,0,1-6.518,2.352,9.723,9.723,0,0,1-6.519-2.352A12.03,12.03,0,0,0,273.532.087a2.581,2.581,0,0,0-2.375,1.121A2.478,2.478,0,0,0,270.845,3.524Z" transform="translate(-270.687 -0.034)" fill="#00a8ff"/>
      </g>
    </g>
    <g id="Capa_9-4" data-name="Capa 9" transform="translate(168.291 0.034)">
      <g id="Group_6643-2" data-name="Group 6643">
        <path id="Path_8733-2" data-name="Path 8733" d="M270.845,3.524a3.19,3.19,0,0,0,2.711,2.019A9.721,9.721,0,0,1,278.8,7.873a11.9,11.9,0,0,0,7.839,2.805,12.081,12.081,0,0,0,7.839-2.805,10.075,10.075,0,0,1,13.037,0,11.9,11.9,0,0,0,7.839,2.805,12.081,12.081,0,0,0,7.839-2.805,9.8,9.8,0,0,1,5.41-2.345,2.821,2.821,0,0,0,2.166-1.348,2.637,2.637,0,0,0,.109-2.884A2.553,2.553,0,0,0,328.458.088a12.3,12.3,0,0,0-6.588,2.752,9.6,9.6,0,0,1-6.518,2.352,9.723,9.723,0,0,1-6.519-2.352A11.9,11.9,0,0,0,300.994.034a12.081,12.081,0,0,0-7.839,2.805,9.683,9.683,0,0,1-6.518,2.352,9.723,9.723,0,0,1-6.519-2.352A12.03,12.03,0,0,0,273.532.087a2.581,2.581,0,0,0-2.375,1.121A2.478,2.478,0,0,0,270.845,3.524Z" transform="translate(-270.687 -0.034)" fill="#00a8ff"/>
      </g>
    </g>
  </g>
</svg>
