<svg xmlns="http://www.w3.org/2000/svg" width="240" height="11.187" viewBox="0 0 240 11.187">
  <g id="Group_6904" data-name="Group 6904" transform="translate(-0.503 -0.034)">
    <g id="Capa_9" data-name="Capa 9" transform="translate(0.503 0.034)">
      <g id="Group_6641" data-name="Group 6641">
        <path id="Path_8731" data-name="Path 8731" d="M.669,3.7a3.353,3.353,0,0,0,2.85,2.122A10.216,10.216,0,0,1,9.027,8.272a12.507,12.507,0,0,0,8.238,2.949A12.7,12.7,0,0,0,25.5,8.272c1.865-1.344,3.425-2.515,6.851-2.515a10.019,10.019,0,0,1,6.851,2.515,12.507,12.507,0,0,0,8.238,2.949,12.7,12.7,0,0,0,8.238-2.949,10.3,10.3,0,0,1,5.686-2.465,2.965,2.965,0,0,0,2.277-1.417,2.772,2.772,0,0,0,.114-3.031A2.684,2.684,0,0,0,61.219.09,12.927,12.927,0,0,0,54.3,2.983a10.092,10.092,0,0,1-6.851,2.472,10.219,10.219,0,0,1-6.851-2.472A12.507,12.507,0,0,0,32.355.034a12.7,12.7,0,0,0-8.238,2.949,10.177,10.177,0,0,1-6.851,2.472,10.219,10.219,0,0,1-6.851-2.472A12.644,12.644,0,0,0,3.493.09,2.713,2.713,0,0,0,1,1.268,2.605,2.605,0,0,0,.669,3.7Z" transform="translate(-0.503 -0.034)" fill="#fbc04f"/>
      </g>
    </g>
    <g id="Capa_9-2" data-name="Capa 9" transform="translate(59.124 0.034)">
      <g id="Group_6642" data-name="Group 6642">
        <path id="Path_8732" data-name="Path 8732" d="M135.862,3.7a3.353,3.353,0,0,0,2.85,2.122,10.214,10.214,0,0,1,5.508,2.448,12.507,12.507,0,0,0,8.238,2.949A12.7,12.7,0,0,0,160.7,8.272c1.865-1.344,3.425-2.515,6.851-2.515A10.019,10.019,0,0,1,174.4,8.272a12.507,12.507,0,0,0,8.238,2.949,12.7,12.7,0,0,0,8.238-2.949,10.3,10.3,0,0,1,5.687-2.465,2.966,2.966,0,0,0,2.277-1.417,2.772,2.772,0,0,0,.114-3.031A2.684,2.684,0,0,0,196.413.09a12.928,12.928,0,0,0-6.924,2.892,10.092,10.092,0,0,1-6.851,2.472,10.219,10.219,0,0,1-6.851-2.472A12.507,12.507,0,0,0,167.549.034a12.7,12.7,0,0,0-8.238,2.949,10.177,10.177,0,0,1-6.851,2.472,10.219,10.219,0,0,1-6.851-2.472A12.643,12.643,0,0,0,138.687.09a2.713,2.713,0,0,0-2.5,1.179A2.605,2.605,0,0,0,135.862,3.7Z" transform="translate(-135.697 -0.034)" fill="#fbc04f"/>
      </g>
    </g>
    <g id="Capa_9-3" data-name="Capa 9" transform="translate(117.656 0.034)">
      <g id="Group_6643" data-name="Group 6643">
        <path id="Path_8733" data-name="Path 8733" d="M270.853,3.7a3.352,3.352,0,0,0,2.85,2.122,10.217,10.217,0,0,1,5.509,2.448,12.506,12.506,0,0,0,8.238,2.949,12.7,12.7,0,0,0,8.239-2.949c1.864-1.344,3.425-2.515,6.851-2.515a10.018,10.018,0,0,1,6.851,2.515,12.507,12.507,0,0,0,8.239,2.949,12.7,12.7,0,0,0,8.239-2.949,10.3,10.3,0,0,1,5.686-2.465,2.964,2.964,0,0,0,2.277-1.417,2.772,2.772,0,0,0,.114-3.031A2.684,2.684,0,0,0,331.4.09a12.927,12.927,0,0,0-6.924,2.892,10.091,10.091,0,0,1-6.851,2.472,10.219,10.219,0,0,1-6.851-2.472A12.507,12.507,0,0,0,302.539.034,12.7,12.7,0,0,0,294.3,2.983a10.177,10.177,0,0,1-6.851,2.472A10.219,10.219,0,0,1,280.6,2.983,12.644,12.644,0,0,0,273.677.09a2.713,2.713,0,0,0-2.5,1.179A2.6,2.6,0,0,0,270.853,3.7Z" transform="translate(-270.687 -0.034)" fill="#fbc04f"/>
      </g>
    </g>
    <g id="Capa_9-4" data-name="Capa 9" transform="translate(176.847 0.034)">
      <g id="Group_6643-2" data-name="Group 6643">
        <path id="Path_8733-2" data-name="Path 8733" d="M270.853,3.7a3.352,3.352,0,0,0,2.85,2.122,10.217,10.217,0,0,1,5.509,2.448,12.506,12.506,0,0,0,8.238,2.949,12.7,12.7,0,0,0,8.239-2.949c1.864-1.344,3.425-2.515,6.851-2.515a10.018,10.018,0,0,1,6.851,2.515,12.507,12.507,0,0,0,8.239,2.949,12.7,12.7,0,0,0,8.239-2.949,10.3,10.3,0,0,1,5.686-2.465,2.964,2.964,0,0,0,2.277-1.417,2.772,2.772,0,0,0,.114-3.031A2.684,2.684,0,0,0,331.4.09a12.927,12.927,0,0,0-6.924,2.892,10.091,10.091,0,0,1-6.851,2.472,10.219,10.219,0,0,1-6.851-2.472A12.507,12.507,0,0,0,302.539.034,12.7,12.7,0,0,0,294.3,2.983a10.177,10.177,0,0,1-6.851,2.472A10.219,10.219,0,0,1,280.6,2.983,12.644,12.644,0,0,0,273.677.09a2.713,2.713,0,0,0-2.5,1.179A2.6,2.6,0,0,0,270.853,3.7Z" transform="translate(-270.687 -0.034)" fill="#fbc04f"/>
      </g>
    </g>
  </g>
</svg>
