<svg xmlns="http://www.w3.org/2000/svg" width="341.307" height="10.749" viewBox="0 0 341.307 10.749">
  <g id="Group_6645" data-name="Group 6645" transform="translate(-0.503 -0.034)">
    <g id="Capa_9" data-name="Capa 9" transform="translate(0.503 0.034)">
      <g id="Group_6641" data-name="Group 6641">
        <path id="Path_8731" data-name="Path 8731" d="M.662,3.559A3.222,3.222,0,0,0,3.4,5.6,9.816,9.816,0,0,1,8.693,7.95a12.016,12.016,0,0,0,7.916,2.833A12.2,12.2,0,0,0,24.524,7.95c1.791-1.291,3.291-2.416,6.582-2.416A9.626,9.626,0,0,1,37.689,7.95,12.016,12.016,0,0,0,45.6,10.783,12.2,12.2,0,0,0,53.521,7.95a9.9,9.9,0,0,1,5.463-2.368A2.849,2.849,0,0,0,61.172,4.22a2.663,2.663,0,0,0,.11-2.912A2.579,2.579,0,0,0,58.84.088a12.42,12.42,0,0,0-6.652,2.779A9.7,9.7,0,0,1,45.6,5.242a9.818,9.818,0,0,1-6.582-2.375A12.016,12.016,0,0,0,31.107.034a12.2,12.2,0,0,0-7.916,2.833,9.778,9.778,0,0,1-6.582,2.375,9.818,9.818,0,0,1-6.582-2.375A12.148,12.148,0,0,0,3.376.087,2.607,2.607,0,0,0,.978,1.22,2.5,2.5,0,0,0,.662,3.559Z" transform="translate(-0.503 -0.034)" fill="#5959c4"/>
      </g>
    </g>
    <g id="Capa_9-2" data-name="Capa 9" transform="translate(224.326 0.034)">
      <g id="Group_6641-2" data-name="Group 6641">
        <path id="Path_8731-2" data-name="Path 8731" d="M.662,3.559A3.222,3.222,0,0,0,3.4,5.6,9.816,9.816,0,0,1,8.693,7.95a12.016,12.016,0,0,0,7.916,2.833A12.2,12.2,0,0,0,24.524,7.95c1.791-1.291,3.291-2.416,6.582-2.416A9.626,9.626,0,0,1,37.689,7.95,12.016,12.016,0,0,0,45.6,10.783,12.2,12.2,0,0,0,53.521,7.95a9.9,9.9,0,0,1,5.463-2.368A2.849,2.849,0,0,0,61.172,4.22a2.663,2.663,0,0,0,.11-2.912A2.579,2.579,0,0,0,58.84.088a12.42,12.42,0,0,0-6.652,2.779A9.7,9.7,0,0,1,45.6,5.242a9.818,9.818,0,0,1-6.582-2.375A12.016,12.016,0,0,0,31.107.034a12.2,12.2,0,0,0-7.916,2.833,9.778,9.778,0,0,1-6.582,2.375,9.818,9.818,0,0,1-6.582-2.375A12.148,12.148,0,0,0,3.376.087,2.607,2.607,0,0,0,.978,1.22,2.5,2.5,0,0,0,.662,3.559Z" transform="translate(-0.503 -0.034)" fill="#5959c4"/>
      </g>
    </g>
    <g id="Capa_9-3" data-name="Capa 9" transform="translate(56.826 0.034)">
      <g id="Group_6642" data-name="Group 6642">
        <path id="Path_8732" data-name="Path 8732" d="M135.856,3.559A3.222,3.222,0,0,0,138.594,5.6a9.813,9.813,0,0,1,5.292,2.352,12.017,12.017,0,0,0,7.916,2.833,12.2,12.2,0,0,0,7.916-2.833c1.791-1.291,3.291-2.416,6.582-2.416a9.626,9.626,0,0,1,6.582,2.416,12.016,12.016,0,0,0,7.916,2.833,12.2,12.2,0,0,0,7.916-2.833,9.9,9.9,0,0,1,5.464-2.368,2.849,2.849,0,0,0,2.188-1.361,2.663,2.663,0,0,0,.11-2.912,2.579,2.579,0,0,0-2.442-1.22,12.422,12.422,0,0,0-6.652,2.779A9.7,9.7,0,0,1,180.8,5.242a9.818,9.818,0,0,1-6.582-2.375A12.016,12.016,0,0,0,166.3.034a12.2,12.2,0,0,0-7.916,2.833A9.778,9.778,0,0,1,151.8,5.242a9.818,9.818,0,0,1-6.582-2.375,12.147,12.147,0,0,0-6.65-2.78,2.607,2.607,0,0,0-2.4,1.132A2.5,2.5,0,0,0,135.856,3.559Z" transform="translate(-135.697 -0.034)" fill="#5959c4"/>
      </g>
    </g>
    <g id="Capa_9-4" data-name="Capa 9" transform="translate(280.649 0.034)">
      <g id="Group_6642-2" data-name="Group 6642">
        <path id="Path_8732-2" data-name="Path 8732" d="M135.856,3.559A3.222,3.222,0,0,0,138.594,5.6a9.813,9.813,0,0,1,5.292,2.352,12.017,12.017,0,0,0,7.916,2.833,12.2,12.2,0,0,0,7.916-2.833c1.791-1.291,3.291-2.416,6.582-2.416a9.626,9.626,0,0,1,6.582,2.416,12.016,12.016,0,0,0,7.916,2.833,12.2,12.2,0,0,0,7.916-2.833,9.9,9.9,0,0,1,5.464-2.368,2.849,2.849,0,0,0,2.188-1.361,2.663,2.663,0,0,0,.11-2.912,2.579,2.579,0,0,0-2.442-1.22,12.422,12.422,0,0,0-6.652,2.779A9.7,9.7,0,0,1,180.8,5.242a9.818,9.818,0,0,1-6.582-2.375A12.016,12.016,0,0,0,166.3.034a12.2,12.2,0,0,0-7.916,2.833A9.778,9.778,0,0,1,151.8,5.242a9.818,9.818,0,0,1-6.582-2.375,12.147,12.147,0,0,0-6.65-2.78,2.607,2.607,0,0,0-2.4,1.132A2.5,2.5,0,0,0,135.856,3.559Z" transform="translate(-135.697 -0.034)" fill="#5959c4"/>
      </g>
    </g>
    <g id="Capa_9-5" data-name="Capa 9" transform="translate(113.065 0.034)">
      <g id="Group_6643" data-name="Group 6643">
        <path id="Path_8733" data-name="Path 8733" d="M270.847,3.559A3.221,3.221,0,0,0,273.585,5.6a9.816,9.816,0,0,1,5.293,2.352,12.016,12.016,0,0,0,7.916,2.833,12.2,12.2,0,0,0,7.916-2.833C296.5,6.658,298,5.533,301.291,5.533a9.626,9.626,0,0,1,6.582,2.416,12.017,12.017,0,0,0,7.916,2.833A12.2,12.2,0,0,0,323.7,7.95a9.9,9.9,0,0,1,5.463-2.368,2.848,2.848,0,0,0,2.188-1.361,2.663,2.663,0,0,0,.11-2.912,2.579,2.579,0,0,0-2.442-1.22,12.42,12.42,0,0,0-6.652,2.779,9.7,9.7,0,0,1-6.582,2.375,9.818,9.818,0,0,1-6.582-2.375A12.016,12.016,0,0,0,301.291.034a12.2,12.2,0,0,0-7.916,2.833,9.778,9.778,0,0,1-6.582,2.375,9.818,9.818,0,0,1-6.582-2.375,12.149,12.149,0,0,0-6.65-2.78,2.607,2.607,0,0,0-2.4,1.132A2.5,2.5,0,0,0,270.847,3.559Z" transform="translate(-270.687 -0.034)" fill="#5959c4"/>
      </g>
    </g>
    <g id="Capa_9-6" data-name="Capa 9" transform="translate(168.806 0.034)">
      <g id="Group_6643-2" data-name="Group 6643">
        <path id="Path_8733-2" data-name="Path 8733" d="M270.847,3.559A3.221,3.221,0,0,0,273.585,5.6a9.816,9.816,0,0,1,5.293,2.352,12.016,12.016,0,0,0,7.916,2.833,12.2,12.2,0,0,0,7.916-2.833C296.5,6.658,298,5.533,301.291,5.533a9.626,9.626,0,0,1,6.582,2.416,12.017,12.017,0,0,0,7.916,2.833A12.2,12.2,0,0,0,323.7,7.95a9.9,9.9,0,0,1,5.463-2.368,2.848,2.848,0,0,0,2.188-1.361,2.663,2.663,0,0,0,.11-2.912,2.579,2.579,0,0,0-2.442-1.22,12.42,12.42,0,0,0-6.652,2.779,9.7,9.7,0,0,1-6.582,2.375,9.818,9.818,0,0,1-6.582-2.375A12.016,12.016,0,0,0,301.291.034a12.2,12.2,0,0,0-7.916,2.833,9.778,9.778,0,0,1-6.582,2.375,9.818,9.818,0,0,1-6.582-2.375,12.149,12.149,0,0,0-6.65-2.78,2.607,2.607,0,0,0-2.4,1.132A2.5,2.5,0,0,0,270.847,3.559Z" transform="translate(-270.687 -0.034)" fill="#5959c4"/>
      </g>
    </g>
  </g>
</svg>
