<svg xmlns="http://www.w3.org/2000/svg" width="175.212" height="10.841" viewBox="0 0 175.212 10.841">
  <g id="Group_6651" data-name="Group 6651" transform="translate(-376.581 -2229.461)">
    <g id="Group_6649" data-name="Group 6649" transform="translate(376.581 2229.461)">
      <g id="Capa_9" data-name="Capa 9" transform="translate(0 0)">
        <g id="Group_6641" data-name="Group 6641">
          <path id="Path_8731" data-name="Path 8731" d="M.664,3.589A3.249,3.249,0,0,0,3.425,5.645,9.9,9.9,0,0,1,8.763,8.017a12.12,12.12,0,0,0,7.983,2.857A12.3,12.3,0,0,0,24.73,8.017c1.807-1.3,3.319-2.437,6.639-2.437a9.709,9.709,0,0,1,6.639,2.437,12.12,12.12,0,0,0,7.983,2.857,12.3,12.3,0,0,0,7.983-2.857,9.983,9.983,0,0,1,5.51-2.389,2.873,2.873,0,0,0,2.206-1.373A2.686,2.686,0,0,0,61.8,1.319,2.6,2.6,0,0,0,59.34.089a12.527,12.527,0,0,0-6.709,2.8,9.779,9.779,0,0,1-6.639,2.4,9.9,9.9,0,0,1-6.639-2.4A12.12,12.12,0,0,0,31.369.034a12.3,12.3,0,0,0-7.983,2.857,9.862,9.862,0,0,1-6.639,2.4,9.9,9.9,0,0,1-6.639-2.4A12.253,12.253,0,0,0,3.4.088,2.629,2.629,0,0,0,.982,1.23,2.525,2.525,0,0,0,.664,3.589Z" transform="translate(-0.503 -0.034)" fill="#2ad58a"/>
        </g>
      </g>
      <g id="Capa_9-2" data-name="Capa 9" transform="translate(56.806 0)">
        <g id="Group_6642" data-name="Group 6642">
          <path id="Path_8732" data-name="Path 8732" d="M135.857,3.589a3.249,3.249,0,0,0,2.762,2.056,9.9,9.9,0,0,1,5.338,2.372,12.12,12.12,0,0,0,7.984,2.857,12.3,12.3,0,0,0,7.983-2.857c1.807-1.3,3.319-2.437,6.639-2.437A9.709,9.709,0,0,1,173.2,8.017a12.119,12.119,0,0,0,7.983,2.857,12.3,12.3,0,0,0,7.983-2.857,9.984,9.984,0,0,1,5.511-2.389,2.874,2.874,0,0,0,2.206-1.373A2.686,2.686,0,0,0,197,1.319a2.6,2.6,0,0,0-2.463-1.23,12.528,12.528,0,0,0-6.71,2.8,9.779,9.779,0,0,1-6.639,2.4,9.9,9.9,0,0,1-6.639-2.4A12.119,12.119,0,0,0,166.563.034a12.3,12.3,0,0,0-7.983,2.857,9.862,9.862,0,0,1-6.639,2.4,9.9,9.9,0,0,1-6.639-2.4,12.251,12.251,0,0,0-6.707-2.8,2.629,2.629,0,0,0-2.419,1.142A2.524,2.524,0,0,0,135.857,3.589Z" transform="translate(-135.697 -0.034)" fill="#2ad58a"/>
        </g>
      </g>
      <g id="Capa_9-3" data-name="Capa 9" transform="translate(113.527 0)">
        <g id="Group_6643" data-name="Group 6643">
          <path id="Path_8733" data-name="Path 8733" d="M270.848,3.589a3.248,3.248,0,0,0,2.761,2.056,9.9,9.9,0,0,1,5.338,2.372,12.119,12.119,0,0,0,7.983,2.857,12.3,12.3,0,0,0,7.983-2.857c1.807-1.3,3.319-2.437,6.639-2.437a9.708,9.708,0,0,1,6.639,2.437,12.12,12.12,0,0,0,7.984,2.857,12.3,12.3,0,0,0,7.984-2.857,9.982,9.982,0,0,1,5.51-2.389,2.872,2.872,0,0,0,2.206-1.373,2.686,2.686,0,0,0,.111-2.937,2.6,2.6,0,0,0-2.463-1.23,12.527,12.527,0,0,0-6.71,2.8,9.779,9.779,0,0,1-6.639,2.4,9.9,9.9,0,0,1-6.639-2.4A12.12,12.12,0,0,0,301.553.034a12.3,12.3,0,0,0-7.984,2.857,9.862,9.862,0,0,1-6.639,2.4,9.9,9.9,0,0,1-6.639-2.4,12.253,12.253,0,0,0-6.707-2.8,2.629,2.629,0,0,0-2.419,1.142A2.523,2.523,0,0,0,270.848,3.589Z" transform="translate(-270.687 -0.034)" fill="#2ad58a"/>
        </g>
      </g>
    </g>
  </g>
</svg>
