<svg id="Capa_9" data-name="Capa 9" xmlns="http://www.w3.org/2000/svg" width="61.685" height="10.84" viewBox="0 0 61.685 10.84">
  <g id="Group_6642" data-name="Group 6642">
    <path id="Path_8732" data-name="Path 8732" d="M135.857,3.589a3.249,3.249,0,0,0,2.762,2.056,9.9,9.9,0,0,1,5.338,2.372,12.12,12.12,0,0,0,7.984,2.857,12.3,12.3,0,0,0,7.983-2.857c1.807-1.3,3.319-2.437,6.639-2.437A9.709,9.709,0,0,1,173.2,8.017a12.119,12.119,0,0,0,7.983,2.857,12.3,12.3,0,0,0,7.983-2.857,9.984,9.984,0,0,1,5.511-2.389,2.874,2.874,0,0,0,2.206-1.373A2.686,2.686,0,0,0,197,1.319a2.6,2.6,0,0,0-2.463-1.23,12.528,12.528,0,0,0-6.71,2.8,9.779,9.779,0,0,1-6.639,2.4,9.9,9.9,0,0,1-6.639-2.4A12.119,12.119,0,0,0,166.563.034a12.3,12.3,0,0,0-7.983,2.857,9.862,9.862,0,0,1-6.639,2.4,9.9,9.9,0,0,1-6.639-2.4,12.251,12.251,0,0,0-6.707-2.8,2.629,2.629,0,0,0-2.419,1.142A2.524,2.524,0,0,0,135.857,3.589Z" transform="translate(-135.697 -0.034)" fill="#2ad58a"/>
  </g>
</svg>
